<svg id="ejcHsCV8MDp1" xmlns="http://www.w3.org/2000/svg" xmlns:xlink="http://www.w3.org/1999/xlink" viewBox="0 0 4229 3975" shape-rendering="geometricPrecision" text-rendering="geometricPrecision"><g><g><path d="M2316.79,3149.94h-972.04v749.73h972.04v-749.73Z" fill="#ebebeb"/><path d="M2073.29,3894.44c-1.31,0-2.43-167.15-2.43-373.32s1.12-373.33,2.43-373.33c1.3,0,2.42,167.16,2.42,373.33s-1.12,373.32-2.42,373.32Z" fill="#e0e0e0"/><path d="M2234.37,3729.06h-74.47v84.28h74.47v-84.28Z" fill="#fafafa"/><path d="M1751.76,3151.9h-110.41v159.97h110.41v-159.97Z" fill="#e0e0e0"/><path d="M1751.76,3737.46h-110.41v159.97h110.41v-159.97Z" fill="#e0e0e0"/><path d="M4080.64,2961.97h-1225.71v945.35h1225.71v-945.35Z" fill="#ebebeb"/><path d="M3773.49,3900.6c-1.3,0-2.42-210.65-2.42-470.57c0-259.93,1.12-470.58,2.42-470.58c1.31,0,2.43,210.65,2.43,470.58c0,259.92-1.03,470.57-2.43,470.57Z" fill="#e0e0e0"/><path d="M3976.67,3692.1h-93.98v106.21h93.98v-106.21Z" fill="#fafafa"/><path d="M3368.06,2964.4h-139.25v201.69h139.25v-201.69Z" fill="#e0e0e0"/><path d="M3368.06,3702.74h-139.25v201.69h139.25v-201.69Z" fill="#e0e0e0"/><g id="ejcHsCV8MDp14" transform="translate(.000006 0.000007)"><path d="M546.301,2989.79c49.652-25.58,108.077-28.94,163.142-19.79c29.586,4.85,60.385,13.72,80.545,35.93c20.159,22.22,23.892,61.32.84,80.45-13.813,11.39-32.946,13.07-50.866,12.88-43.118-.56-90.904-8.12-125.343,17.83-19.693,14.84-32.759,39.39-55.998,46.67-23.24,7.28-48.906-6.44-61.039-27.16-11.224-21.61-13.697-46.71-6.906-70.1c2.748-16.2,9.196-31.55,18.844-44.86c9.648-13.3,22.234-24.2,36.781-31.85Z" fill="#ebebeb"/><path d="M430.571,3423.87c1.621-6.42,2.559-12.99,2.8-19.6c1.4-14.37,3.08-32.39,5.227-53.76c2.675-26.44,6.693-52.74,12.039-78.77c7.013-31.84,16.595-63.05,28.653-93.33c11.825-30.09,27.817-58.36,47.505-84c16.096-20.85,36.585-37.9,60.012-49.93c15.932-7.86,33.004-13.15,50.585-15.68c6.618-.26,13.189-1.23,19.6-2.89-6.607-.73-13.273-.73-19.88,0-18.257,1.37-36.119,6.02-52.732,13.71-24.738,11.67-46.431,28.93-63.371,50.4-20.606,25.98-37.216,54.89-49.279,85.77-12.043,30.65-21.411,62.28-27.999,94.55-5.078,26.37-8.599,53.01-10.547,79.8-1.68,22.86-2.333,41.34-2.613,54.13-.688,6.51-.688,13.08,0,19.6Z" fill="#e0e0e0"/></g><g id="ejcHsCV8MDp17" transform="translate(0 0.000003)"><path d="M432.625,2770.37c30.332,43.3,89.317,29.02,116.663,2.52c27.346-26.51,38.919-64.78,49.372-101.27c24.079-83.53,48.252-171.17,30.426-256.19-4.292-25.79-15.63-49.88-32.759-69.63-8.673-9.69-19.728-16.96-32.071-21.06-12.344-4.11-25.547-4.93-38.301-2.36-29.772,7.84-48.252,37.33-61.598,64.68-39.349,81.75-59.948,171.25-60.292,261.98c0,42.27,4.76,86.51,28.56,121.33Z" fill="#ebebeb"/><path d="M434.304,3382.62c.554-3.08.742-6.22.56-9.34c0-6.9,0-15.58,0-26.13c0-22.68,0-55.53,1.12-96.04c2.053-81.01,9.333-167.99,22.493-291.1c12.786-115.63,29.866-250.12,47.972-337.57c3.826-19.88,7.746-37.8,11.48-53.48c3.733-15.68,6.439-29.31,9.333-40.23c2.893-10.92,4.48-18.66,6.16-25.38.913-3.04,1.446-6.17,1.586-9.34-1.406,2.72-2.472,5.61-3.173,8.59-2.053,6.63-4.573,14.84-7.653,25.01-3.08,10.18-6.813,24.36-10.733,39.95-3.92,15.58-8.4,33.5-12.6,53.38-22.42,103.43-39.275,207.99-50.492,313.22-13.439,123.2-19.506,235.38-20.066,316.58c0,40.6,0,73.54,1.4,96.22.653,10.55,1.213,19.23,1.587,26.04-.046,3.24.299,6.46,1.026,9.62Z" fill="#e0e0e0"/></g><g id="ejcHsCV8MDp20" transform="translate(.000002 0.000002)"><path d="M349.373,2832.52c32.946-39.1,39.199-96.03,24.546-145.03s-47.785-90.63-85.957-124.69c-44.897-39.94-97.138-70.75-153.809-90.72-21.965-8.87-45.5897-12.88-69.2518-11.76-11.8038.67-23.2639,4.22-33.382,10.34s-18.5872,14.61-24.66969,24.75c-16.23955,30.9-.65332,68.32,16.14619,98.93c29.5841,53.87,63.349,105.33,100.9843,153.91c30.332,39.01,65.331,77.55,111.157,95.19c45.825,17.64,94.17,15.59,118.623-16.42" fill="#ebebeb"/><path d="M434.864,3166.27c.712-9.1.712-18.24,0-27.34-1.026-17.55-3.453-42.84-8.399-73.92-6.105-36.33-14.269-72.29-24.453-107.7-11.771-43.58-26.84-86.2-45.079-127.49-31.226-76.09-76.04-145.85-132.25-205.89-9.752-10.31-20.165-19.97-31.172-28.93-4.76-4.11-9.333-8.12-13.253-11.3l-11.573-8.3c-7.264-5.55-14.974-10.48-23.053-14.75-1.306,1.77,32.573,21.75,75.318,67.2c54.372,60.6,97.994,130.04,128.983,205.33c17.925,41.02,33.048,83.21,45.266,126.27c10.263,35.09,18.767,70.66,25.479,106.59c5.6,30.7,9.333,56,10.826,73.17.399,9.1,1.523,18.15,3.36,27.06Z" fill="#e0e0e0"/></g><path d="M211.244,3514.96l21.652,297.07h381.63l21.652-297.07h-424.934Z" fill="#ebebeb"/><path d="M681.631,3397.92h-507.253v117.04h507.253v-117.04Z" fill="#ebebeb"/><path d="M174.378,3800.64v32.39h23.893h475.054v-32.39h-498.947Z" fill="#e0e0e0"/><path d="M221.604,3886.6l-23.333-57.12h456.854l-27.253,57.12h-406.268Z" fill="#e0e0e0"/><path d="M629.086,3612.02c-.477,1-1.072,1.94-1.774,2.8-1.493,1.96-3.453,4.48-5.693,7.56l-22.213,28-1.026,1.31-.934-1.31-54.598-75.5h3.08l-53.759,76.06-1.68,2.43-1.866-2.24-63.745-75.88h3.64l-3.453,4.48-57.026,71.4-1.959,2.42-1.68-2.52-53.852-76.06h3.173l-66.265,75.41-1.12,1.4-.933-1.59-20.72-34.34c-2.24-3.73-3.919-6.81-5.319-9.33-.704-1.05-1.269-2.18-1.68-3.36.873.89,1.626,1.89,2.24,2.98l5.879,8.87l21.746,34.25h-2.053l65.332-76.34l1.586-1.96l1.494,2.05l54.318,75.78h-3.546l56.838-71.58c1.213-1.49,2.427-2.99,3.453-4.39l1.867-2.33l1.866,2.24l63.559,76.06h-3.547l54.319-75.69l1.586-2.24l1.494,2.24c21.559,30.71,39.852,56.75,53.478,76.35h-1.96l23.146-28c2.52-2.89,4.573-5.23,6.16-7.19.66-.8,1.377-1.54,2.147-2.24Z" fill="#f5f5f5"/><path d="M641.499,3513c0,1.3-95.665,2.42-213.541,2.42-117.877,0-213.541-1.12-213.541-2.42c0-1.31,95.571-2.33,213.541-2.33s213.541,1.02,213.541,2.33Z" fill="#f5f5f5"/><path d="M3317.87,145.169l-78.21.423l2.11,389.184l78.21-.424-2.11-389.183Z" fill="#e0e0e0"/><path d="M2764.62,146.205l-202.52,1.096l1.16,214.844l202.52-1.096-1.16-214.844Z" fill="#ebebeb"/><path d="M2966.21,145.114l-202.53,1.096l1.16,214.844l202.53-1.096-1.16-214.844Z" fill="#f5f5f5"/><path d="M2562.34,206.757c134.64,1.12,269.35.497,404.12-1.867.57,0,1.12-.226,1.52-.629.4-.402.63-.948.63-1.518c0-.569-.23-1.115-.63-1.517-.4-.403-.95-.629-1.52-.629-134.58-.747-269.54,0-404.12,2.52-.41.094-.78.325-1.05.656-.26.33-.4.741-.4,1.164s.14.833.4,1.164c.27.33.64.562,1.05.656Z" fill="#e0e0e0"/><path d="M2803.84,357.478l-367.99,1.991.94,175.086l368-1.991-.95-175.086Z" fill="#ebebeb"/><path d="M3170.06,355.496l-368,1.991.95,175.086l368-1.991-.95-175.086Z" fill="#f5f5f5"/><path d="M2436.06,408.351c244.44,2.707,489.71,0,734.23-3.64.57,0,1.12-.226,1.52-.628.41-.403.63-.949.63-1.518c0-.57-.22-1.116-.63-1.518-.4-.403-.95-.629-1.52-.629-244.43-1.307-489.79-1.213-734.23,4.2-.49,0-.97.197-1.32.547s-.54.825-.54,1.32.19.969.54,1.319.83.547,1.32.547Z" fill="#e0e0e0"/><path d="M3724.12,534.721h-1425.72v62.718h1425.72v-62.718Z" fill="#e0e0e0"/><path d="M2589.69,564.867h-57.87v214.007h57.87v-214.007Z" fill="#e0e0e0"/><path d="M3453.65,564.867h-57.87v214.007h57.87v-214.007Z" fill="#e0e0e0"/><path d="M3394.17,0.000056l-78.21.423162l2.9,535.243782l78.21-.423-2.9-535.243944Z" fill="#ebebeb"/><path d="M3516.32,99.6696l-121.51.6574l2.34,433.795l121.52-.657-2.35-433.7954Z" fill="#f5f5f5"/><path d="M3515.53,183.424c-40.4,2.853-80.94,2.853-121.33,0c40.39-2.729,80.93-2.729,121.33,0Z" fill="#e0e0e0"/><path d="M3515.53,165.691c-20.19,2.043-40.49,2.729-60.76,2.053-20.28.672-40.58-.014-60.76-2.053c40.39-2.853,80.94-2.853,121.33,0h.19Z" fill="#e0e0e0"/><path d="M3515.53,468.363c-40.4,2.853-80.94,2.853-121.33,0c40.39-2.729,80.93-2.729,121.33,0Z" fill="#e0e0e0"/><path d="M3515.53,450.163c-40.4,2.73-80.94,2.73-121.33,0c40.39-2.853,80.93-2.853,121.33,0Z" fill="#e0e0e0"/><path d="M3456.73,410.404c-1.12,0-2.06-43.772-2.06-97.717s.94-97.811,2.06-97.811s2.14,43.773,2.14,97.811c0,54.039-.93,97.717-2.14,97.717Z" fill="#e0e0e0"/><path d="M3649.18,206.383h-132.25v327.405h132.25v-327.405Z" fill="#ebebeb"/><path d="M3353.88,114.079c12.42,0,22.49-10.07,22.49-22.4925c0-12.4224-10.07-22.4927-22.49-22.4927-12.43,0-22.5,10.0703-22.5,22.4927c0,12.4225,10.07,22.4925,22.5,22.4925Z" fill="#e0e0e0"/><path d="M3360.88,153.465h-13.91v318.444h13.91v-318.444Z" fill="#e0e0e0"/><g id="ejcHsCV8MDp49" transform="matrix(.611364 0 0 0.611364 785.575017 559.103101)"><path d="M695.257,730.062L531.368,689.743h1.214c-42.317,26.918-91.251,41.614-141.396,42.466-29.687.135-59.227-4.175-87.638-12.787-49.949-16.038-94.263-46.04-127.704-86.461-33.442-40.42-54.613-89.57-61.011-141.639-5.025-39.38-1.326-79.383,10.836-117.173c12.161-37.79,32.487-72.443,59.536-101.501c14.219-15.618,30.155-29.581,47.505-41.625c8.773-5.507,17.546-11.2,26.693-15.96l13.906-6.72l6.906-3.36l7.28-2.613c37.477-14.527,77.678-20.675,117.784-18.013c53.748,3.49,105.261,22.813,148.046,55.532c42.784,32.72,74.926,77.372,92.374,128.33c9.693,28.506,14.797,58.37,15.119,88.477.234,50.036-13.364,99.162-39.292,141.956v-1.493c45.545,82.225,68.505,123.757,73.638,132.903-5.32-9.333-29.119-50.119-76.251-131.503v-.747-.746c24.997-42.38,37.908-90.797,37.332-139.996-.433-29.626-5.6-58.991-15.306-86.985-17.258-49.915-48.858-93.63-90.843-125.671-41.986-32.041-92.49-50.984-145.191-54.457-39.315-2.562-78.716,3.49-115.45,17.733l-7.093,2.52-6.813,3.36-13.626,6.533c-9.333,4.76-17.547,10.266-26.226,15.679-17.016,11.722-32.668,25.308-46.666,40.506-26.554,28.526-46.513,62.54-58.464,99.635s-15.602,76.363-10.694,115.026c8.653,70.831,44.993,135.357,101.077,179.475c25.074,19.868,53.53,35.044,83.998,44.799c27.901,8.624,56.941,12.998,86.144,12.972c49.545-.53,97.984-14.707,139.997-40.972h.559h1.027l162.582,42.839Z" fill="#263238"/><path d="M364.68,336.486l8.306,137.197c.332,5.411,2.631,10.514,6.465,14.348c3.833,3.834,8.937,6.133,14.348,6.464c5.694.322,11.295-1.549,15.652-5.229s7.139-8.889,7.774-14.557l15.213-137.476c.265-2.46.004-4.947-.766-7.298-.769-2.351-2.03-4.512-3.698-6.339s-3.705-3.278-5.977-4.258c-2.271-.98-4.725-1.465-7.199-1.425h-33.319c-2.338.07-4.638.612-6.761,1.592-2.124.981-4.027,2.381-5.596,4.115-1.569,1.735-2.771,3.769-3.535,5.98-.763,2.211-1.072,4.553-.907,6.886Z" fill="#af1ee0"/><path d="M430.011,571.12c-2.088,6.267-5.987,11.774-11.205,15.826s-11.519,6.466-18.109,6.938c-6.589.471-13.17-1.021-18.911-4.289-5.742-3.267-10.385-8.164-13.345-14.07-2.959-5.906-4.102-12.557-3.283-19.112s3.563-12.72,7.885-17.716s10.028-8.599,16.397-10.353c6.369-1.755,13.115-1.582,19.385.497c4.17,1.382,8.025,3.572,11.347,6.446c3.322,2.873,6.045,6.374,8.013,10.301c1.967,3.926,3.142,8.203,3.455,12.584.314,4.381-.24,8.781-1.629,12.948Z" fill="#af1ee0"/></g></g><g><path d="M4122.74,3902.19c0,1.4-897.1,2.42-2003.35,2.42s-2003.53-1.02-2003.53-2.42s896.91-2.43,2003.53-2.43s2003.35,1.12,2003.35,2.43Z" fill="#263238"/></g><g><path d="M1178.62,476.949c44.01,53.863,67.84,121.398,67.38,190.955-.47,39.386-7.74,82.784,15.21,114.797c17.36,24.266,49.1,36.492,63.19,62.811c16.99,31.639,2.52,71.678,12.97,106.024c14.75,48.714,71.87,69.154,105.75,107.144c14.44,16.8,24.54,36.88,29.42,58.49c4.88,21.6,4.39,44.08-1.42,65.45-6.18,21.29-17.34,40.79-32.57,56.9-15.22,16.1-34.07,28.33-54.98,35.69-22.32,8.8-47.22,8.39-69.25-1.12-22.87-11.39-37.33-34.82-48.53-57.68-22.49-44.99-220.08-288.113-231.28-337.205" fill="#263238"/><path d="M1034.89,419.644c-80.827-13.066-158.665,40.599-192.544,115.077s-34.999,158.662-37.332,240.793-8.307,167.249-50.025,237.616c-26.506,44.71-67.572,84-74.012,135.43-5.786,46.1,18.107,92.58,10.173,138.41-6.906,39.94-37.332,74.66-36.119,115.07c1.494,48.72,51.612,85.4,100.238,86.71c48.625,1.3,94.17-24.18,132.343-54.41c62.192-49.38,111.959-112.64,145.318-184.71" fill="#263238"/><path d="M901.891,612.279c-2.539-20.331-.967-40.965,4.621-60.678c5.589-19.712,15.08-38.1,27.911-54.074s28.741-29.207,46.784-38.915c18.044-9.707,37.853-15.691,58.253-17.595c81.48-7.84,154,52.918,166.22,133.929c10.74,71.025,19.88,142.703,19.6,168.742-1.02,78.492-46.66,109.011-65.33,118.251-6.71,2.409-13.66,4.129-20.72,5.133v.56l17.36,90.157c7.93,59.081-25.01,112.001-84,120.301-58.98,8.31-105.367-36.77-114.42-95.848L901.891,612.279Z" fill="#ffbe9d"/><path d="M1189.63,609.292c-1.31,1.867-11.67-3.64-24.92-1.68s-22.12,9.987-23.8,8.587s0-3.734,4.11-7.467c5.1-4.972,11.62-8.233,18.66-9.333c6.91-1.065,13.98.113,20.16,3.36c4.67,2.987,6.44,5.786,5.79,6.533Z" fill="#263238"/><path d="M1071.47,638.038c-1.3,1.867-11.66-3.733-25.01-1.773s-22.03,10.08-23.71,8.68s0-3.827,4.11-7.467c5.1-4.972,11.63-8.233,18.67-9.333c6.91-.984,13.96.223,20.16,3.453c4.57,2.894,6.44,5.6,5.78,6.44Z" fill="#263238"/><path d="M1119.91,709.249c6.68-3.211,13.73-5.563,21-6.999c3.36-.84,6.44-1.96,6.72-4.387-.3-3.41-1.6-6.655-3.73-9.333l-13.91-24.826c-19.32-34.719-33.78-63.465-32.38-64.305s18.66,26.879,37.33,61.598c4.76,8.587,9.33,16.8,13.44,24.546c2.71,3.796,4.03,8.411,3.73,13.067-.31,1.273-.91,2.458-1.75,3.462s-1.9,1.799-3.1,2.324c-1.82.797-3.73,1.361-5.7,1.68-7.04,1.998-14.32,3.064-21.65,3.173Z" fill="#263238"/><path d="M1138.48,867.165c0,0-50.67,11.666-120.49-17.546c0,0,30.15,64.865,125.25,41.812l-4.76-24.266Z" fill="#eb996e"/><path d="M1064.66,603.226c-.75,3.826-14.28,4.013-29.59,8.213-15.3,4.2-27.34,10.173-29.86,7.28-1.12-1.4.56-5.134,5.13-9.334c6.16-5.266,13.44-9.062,21.28-11.1c7.84-2.037,16.04-2.263,23.99-.659c6.16,1.4,9.05,3.826,9.05,5.6Z" fill="#263238"/><path d="M1178.71,579.893c-1.87,3.36-11.48,1.587-22.49,2.987-11.02,1.4-20.07,5.04-22.68,2.146-1.12-1.4,0-4.573,3.54-8.026c4.9-4.339,11.04-7.018,17.55-7.653c6.43-.775,12.94.43,18.67,3.453c4.48,2.52,6.25,5.413,5.41,7.093Z" fill="#263238"/><path d="M1042.63,655.211c.21,1.444.7,2.833,1.45,4.087.74,1.253,1.73,2.346,2.9,3.214s2.51,1.495,3.92,1.844c1.42.349,2.89.413,4.33.188c1.41-.161,2.76-.6,3.99-1.29s2.31-1.618,3.18-2.729c.87-1.112,1.51-2.386,1.88-3.746.37-1.361.47-2.782.29-4.181-.44-2.906-2.01-5.521-4.37-7.27-2.37-1.749-5.33-2.491-8.23-2.063-1.41.149-2.77.579-4.01,1.266-1.23.686-2.32,1.614-3.19,2.728-.87,1.115-1.51,2.393-1.88,3.759-.36,1.366-.45,2.792-.26,4.193Z" fill="#263238"/><path d="M1160.32,629.732c.44,2.906,2.01,5.52,4.38,7.269c2.36,1.75,5.32,2.492,8.22,2.064c1.41-.162,2.76-.6,3.99-1.29s2.31-1.618,3.18-2.73c.87-1.111,1.51-2.385,1.88-3.746.37-1.36.47-2.782.29-4.181-.44-2.906-2.01-5.52-4.37-7.269-2.37-1.75-5.33-2.492-8.23-2.064-1.41.15-2.77.58-4.01,1.266-1.23.687-2.32,1.615-3.19,2.729-.87,1.115-1.51,2.393-1.88,3.759-.36,1.366-.45,2.792-.26,4.193Z" fill="#263238"/><g><path d="M1140.82,735.009c-3.67-1.14-7.61-.962-11.16.504-3.54,1.466-6.47,4.128-8.25,7.522-1.71,3.117-2.41,6.69-1.99,10.22s1.93,6.842,4.32,9.473c2.54,2.499,5.89,4.011,9.45,4.268c3.55.256,7.09-.76,9.96-2.868c3.6-3.278,5.78-7.833,6.07-12.693.63-4.456-.43-8.987-2.99-12.693-1.31-1.812-3.18-3.141-5.32-3.782-2.15-.641-4.44-.559-6.53.235" fill="#eb996e"/></g><g id="ejcHsCV8MDp69"><path d="M1987.42,1623.98l-358.85-142.33c0,0-183.77-241.07-179.95-245.73l-129.07,141.3l187.59,253.76l434.83,101.92l74.66-20.72c-16.42-79.24-29.21-88.2-29.21-88.2Z" fill="#ffbe9d"/><path d="M1307.97,986.069l169.87,245.371-136.73,166.5-33.14-411.871Z" fill="#af1ee0"/><path d="M1397.85,1130.64c-10.29,11.88-22.61,21.84-36.4,29.4-13.01,8.79-27.53,15.12-42.84,18.66-.56-1.3,18.67-9.33,40.32-23.14c21.66-13.82,37.99-26.04,38.92-24.92Z" fill="#fafafa"/><path d="M2128.63,1816.25c3.08-7.47,2.24-4.48-47.22-37.34c0,0,70.93,46.67,63.55,24.46-6.38-8.42-14.18-15.65-23.05-21.38c18.67,11.02,29.49,12.23,32.76,7.75c5.6-7.75-35-37.33-54.32-50.68c17.66,12.64,36.19,24.02,55.44,34.07c11.48,3.54,5.97-9.9-1.77-19.7-7.75-9.8-67.86-67.66-84-84.93-1.54-1.31-2.77-2.94-3.62-4.78-.84-1.84-1.28-3.83-1.28-5.86c0-2.02.44-4.02,1.28-5.85.85-1.84,2.08-3.47,3.62-4.79c28.93-18.66,41.62-48.44,41.25-58.23-.32-2.21-1.33-4.26-2.89-5.85-1.56-1.6-3.58-2.66-5.78-3.03-2.2-.38-4.46-.04-6.46.95-1.99.99-3.62,2.59-4.66,4.57-7.3,9.07-15.81,17.11-25.29,23.89-7.35,5.73-15.62,10.18-24.45,13.16-10.27,3.36-60.76.56-71.59-4.95l-34.43,116.76c0,0,124.97,58.42,148.67,69.81c29.12,13.81,42.09,17.64,44.24,11.95Z" fill="#ffbe9d"/><path d="M2083.08,1715.64c-.93,1.3,14.56,14.55,34.63,29.49c20.07,14.93,37.33,25.94,38.08,24.64.75-1.31-14.47-14.56-34.53-29.5-20.07-14.93-37.15-25.94-38.18-24.63Z" fill="#eb996e"/></g><path d="M1195.32,511.015c-7.32-29.57-25.6-55.256-51.14-71.865-20.91-15.099-45.74-23.82-71.49-25.106-25.92-1.116-51.22,8.079-70.37,25.573-13.596,13.471-21.369,31.731-21.658,50.865l1.494-13.066c-3.922,10.632-3.922,22.314,0,32.946c2.146,5.693,4.76,11.479,6.999,17.172c6.682,16.452,19.075,29.94,34.905,37.986c7.17,3.845,15.2,5.805,23.33,5.693c4.08-.082,8.08-1.051,11.74-2.84c3.66-1.79,6.88-4.356,9.45-7.52c5.79-10.116,7.59-22.036,5.04-33.412c6.12,11.242,14.86,20.845,25.48,27.999c5.42,3.464,11.87,4.956,18.26,4.225s12.33-3.64,16.83-8.238c7.65-9.333,4.67-24.079,0-35.652c7.22,10.916,17.34,19.608,29.21,25.106c3.13,1.793,6.59,2.918,10.18,3.303c3.58.386,7.2.024,10.64-1.063c2.74-1.362,5.14-3.33,7.02-5.755s3.18-5.244,3.8-8.245c1.39-5.946,1.48-12.12.28-18.106Z" fill="#263238"/><path d="M1127.85,535.841c-.84,0-.66-11.107-4.3-27.999-4.2-22.448-15.48-42.958-32.2-58.519-9.18-8.354-20.27-14.344-32.29-17.453-9.85-2.416-20.1-2.671-30.05-.746-9.18,2.144-17.94,5.769-25.95,10.733c0,0,1.59-2.334,5.7-5.32c5.89-4.123,12.51-7.099,19.5-8.773c10.47-2.451,21.36-2.451,31.83,0c12.89,3.219,24.77,9.639,34.53,18.666c17.5,16.202,28.93,37.907,32.39,61.505c1.11,6.976,1.67,14.029,1.68,21.093.11,2.302-.17,4.607-.84,6.813Z" fill="#455a64"/><path d="M1205.31,936.23l-48.91-18.666L945.29,944.35v37.332l-6.066.747c-45.508,9.675-89.157,26.631-129.263,50.211-37.568,22.93-67.419,56.58-85.713,96.61-18.295,40.03-24.199,84.62-16.951,128.04c8.586,53.38,25.199,118.25,57.305,155.77c61.318,71.77,117.317-16.9,117.317-16.9s38.452,87.73,36.212,129.27c-1.867,34.81-17.173,107.23-22.119,129.82-.204.9-.221,1.84-.051,2.75s.523,1.77,1.038,2.54c.516.77,1.182,1.42,1.959,1.93.777.5,1.648.84,2.56.99l445.372,82.41l2.15-108.91-14.19-447.99L1314.79,1015c0,0,.65-83.063-109.48-78.77Z" fill="#af1ee0"/><path d="M1344.65,1502.37c-.61-5.26-.83-10.56-.65-15.86c0-11.02,0-25.48-.56-43.12-.83-47.34-4.22-94.61-10.17-141.58-7-55.07-17.74-104.25-25.86-140l-9.89-42c-1.43-5.08-2.49-10.26-3.17-15.49c2.12,4.85,3.81,9.88,5.04,15.02c2.89,9.34,6.81,23.99,11.29,41.72c12.05,46.05,21.22,92.81,27.44,140c6,47.17,8.93,94.68,8.77,142.24c0,18.66-.46,33.03-1.02,43.21.04,5.31-.36,10.62-1.22,15.86Z" fill="#263238"/><path d="M926.53,1129.33c0,.75-12.879.65-33.505,1.68-26.913,1.46-53.68,4.92-80.078,10.36-26.391,5.54-52.344,12.99-77.651,22.31-19.413,7.18-31.079,12.5-31.453,11.76c2.393-1.88,5.03-3.42,7.84-4.58c5.133-2.8,12.786-6.34,22.399-10.36c50.362-20.79,104.184-31.94,158.663-32.85c10.453,0,18.666,0,24.732.56c3.058-.1,6.112.28,9.053,1.12Z" fill="#fafafa"/><path d="M1319.92,1241.61c-6.83,2.48-13.95,4.05-21.19,4.66-34.51,5.04-69.47,6.23-104.25,3.55-7.26-.12-14.47-1.19-21.46-3.17c7.2-.64,14.45-.64,21.65,0c13.25,0,31.64,0,51.89,0c20.26,0,38.55-2.06,51.8-3.27c7.12-1.24,14.33-1.84,21.56-1.77Z" fill="#fafafa"/><path d="M1329.25,1016.87c-29.44,26.49-66.96,42.27-106.49,44.8c0-1.5,25.67-5.42,55.16-18.02s50.4-28,51.33-26.78Z" fill="#fafafa"/><path d="M1338.49,1431.63c-2.74,1.85-5.69,3.38-8.77,4.57-5.88,2.8-14.37,6.26-25.2,10.27-28.13,10.11-57.16,17.48-86.7,22.03-29.54,4.56-59.46,6.21-89.32,4.94-11.48-.46-20.72-1.3-27.07-2.14-3.32-.23-6.61-.82-9.8-1.78c0-.84,14.19,0,37.34.56c59.33.56,118.37-8.52,174.8-26.88c21.28-7,34.44-12.32,34.72-11.57Z" fill="#fafafa"/><path d="M1341.95,1558.09c0,0-1.31.94-4.02,2.34l-11.94,5.22c-10.27,4.86-25.48,11.2-44.52,18.67s-42.09,14.65-68.04,21.74c-56.41,15.19-114.31,24.18-172.66,26.79-26.88,1.03-51.055.93-71.401,0s-36.679-2.43-47.972-4.01l-12.973-1.78c-1.528-.11-3.034-.42-4.48-.93c1.515-.24,3.059-.24,4.574,0l13.066.84c11.293.93,27.999,1.87,47.879,2.43c19.879.56,44.427,0,71.117-.94c26.69-.93,56-4.29,86.52-9.33s59.26-11.11,85.21-17.64s48.9-13.9,67.94-20.72c19.04-6.81,34.54-12.5,44.99-16.8l12.13-4.76c1.48-.53,3.02-.9,4.58-1.12Z" fill="#fafafa"/><path d="M523.342,3542.21L472.85,3770.22l-92.118,168.83c-1.566,2.89-2.524,6.06-2.816,9.33-.291,3.27.092,6.56,1.124,9.67c1.032,3.12,2.692,5.99,4.878,8.43c2.185,2.45,4.849,4.42,7.827,5.8c3.458,1.59,7.245,2.32,11.045,2.14s7.502-1.26,10.795-3.17c42.745-24.64,199.634-116.38,202.341-133.27c3.266-19.51,69.251-236.97,69.251-236.97l-161.835-58.8Z" fill="#af1ee0"/><g opacity="0.6"><path d="M391.746,3972.28l228.007-149.33-2.427,9.33c-1.995,8.33-6.892,15.68-13.813,20.72-18.666,13.35-70.651,49.19-189.181,118.44-3.403,1.99-7.247,3.11-11.188,3.26s-7.857-.69-11.398-2.42Z" fill="#fff"/></g><g opacity="0.6"><path d="M591.1,3738.11c-3.293,1.38-5.963,3.92-7.496,7.14s-1.822,6.89-.81,10.32c1.246,3.33,3.72,6.05,6.914,7.61c3.194,1.57,6.865,1.85,10.258.79c3.526-1.46,6.38-4.19,8.003-7.64s1.898-7.39.77-11.03c-1.652-3.31-4.507-5.85-7.978-7.12s-7.295-1.16-10.688.31" fill="#fff"/></g><path d="M467.903,3885.85c-3.765-8.39-9.049-16.01-15.586-22.49-7.529-5.24-15.985-9.01-24.919-11.1c0-.66,3.267-1.68,8.773-1.12c7.166.92,13.909,3.9,19.413,8.58c5.546,4.5,9.637,10.54,11.759,17.36c1.587,5.32,1.12,8.77.56,8.77Z" transform="translate(0 0.000001)" fill="#263238"/><path d="M444.291,3912.27c-1.307.74-6.813-8.4-17.733-14.65-6.966-3.24-14.137-6.02-21.466-8.31c4.029-1.32,8.315-1.66,12.502-1c4.187.67,8.156,2.32,11.577,4.83c12.413,7.18,16.426,18.85,15.12,19.13Z" fill="#263238"/><path d="M507.476,3854.31c-7.937-8.81-16.55-16.99-25.76-24.45-10.147-6.19-20.756-11.59-31.732-16.15c12.623-.26,24.926,3.98,34.719,11.95c10.796,6.49,18.883,16.67,22.773,28.65Z" fill="#263238"/><path d="M528.662,3786.27c-.934,1.21-12.227-7.09-28-11.67-15.772-4.57-30.052-3.82-30.145-5.41c10.388-2.69,21.309-2.52,31.61.48c10.301,3.01,19.598,8.75,26.908,16.6h-.373Z" fill="#263238"/><path d="M545.181,3719.73c-9.104-5.63-18.932-10-29.212-12.98-10.591-1.44-21.328-1.44-31.919,0c0-.56,2.893-2.8,8.866-4.57c7.852-2.13,16.093-2.4,24.066-.78s15.457,5.09,21.853,10.11c4.76,4.48,6.72,7.84,6.346,8.22Z" fill="#263238"/><path d="M519.422,3694.15c.007-2.96.643-5.88,1.866-8.58c2.645-7.71,6.837-14.79,12.32-20.82c3.587-4.77,8.633-8.24,14.373-9.89c1.954-.32,3.96-.05,5.757.79c1.797.83,3.303,2.18,4.323,3.88c1.715,3.48,2.081,7.47,1.026,11.2-2.393,7.48-7.314,13.9-13.92,18.16s-14.487,6.08-22.292,5.17c-7.697-1.1-14.898-4.45-20.694-9.63s-9.93-11.96-11.878-19.49c-.449-1.91-.489-3.9-.119-5.83s1.142-3.76,2.265-5.37c1.29-1.5,3.025-2.56,4.955-3.01c1.93-.46,3.953-.28,5.778.49c5.276,2.63,9.778,6.59,13.067,11.48c4.946,6.48,8.706,13.77,11.106,21.56c1.137,2.78,1.677,5.77,1.586,8.77-3.762-10.06-9.016-19.5-15.586-28-3.059-3.98-7.027-7.18-11.573-9.33-.999-.43-2.113-.53-3.173-.28s-2.01.84-2.707,1.68c-.652,1.1-1.071,2.32-1.232,3.59-.16,1.27-.059,2.56.299,3.78c1.947,6.34,5.643,11.99,10.662,16.32c5.02,4.33,11.159,7.15,17.711,8.14c6.601.76,13.267-.73,18.912-4.24c5.644-3.51,9.933-8.82,12.167-15.08.904-2.54.904-5.31,0-7.84-.529-.96-1.345-1.73-2.333-2.19-.988-.47-2.098-.62-3.174-.43-4.864,1.34-9.198,4.14-12.413,8.03-7.159,7.98-12.932,17.09-17.079,26.97Z" fill="#263238"/><g opacity="0.3"><path d="M517.182,3566.94l-10.92,52.27l165.102,27.44l13.813-45.64-162.115-58.8-5.88,24.73Z"/></g><path d="M1260.65,3626.58l-13.62,182.18c0,0,180.69,74.67,181.43,109.01l-354.65-13.72l9.33-284.84l177.51,7.37Z" fill="#af1ee0"/><g opacity="0.6"><path d="M1138.3,3789.16c-3.44.93-6.43,3.08-8.39,6.06-1.96,2.97-2.76,6.56-2.25,10.09.78,3.47,2.86,6.51,5.81,8.51c2.95,1.99,6.54,2.79,10.05,2.22c3.67-.97,6.84-3.26,8.9-6.43c2.07-3.17,2.89-7,2.3-10.74-1.17-3.54-3.68-6.49-6.98-8.23-3.31-1.74-7.16-2.14-10.75-1.1" fill="#fff"/></g><g opacity="0.6"><path d="M1073.99,3904.05l2.06-28.74l339.25,23.61c0,0,15.59,7.47,13.35,18.67l-354.66-13.54Z" fill="#fff"/></g><path d="M1253,3807.18c0,1.77-8.77,2.24-17.45,7.46-8.68,5.23-13.53,12.32-15.12,11.58-1.59-.75,1.4-10.64,12.04-16.8s21-3.83,20.53-2.24Z" fill="#263238"/><path d="M1289.59,3824.26c0,1.77-7.28,4.38-13.44,11.48-6.16,7.09-8.12,14.74-9.9,14.65-1.77-.09-2.42-9.99,5.42-18.67s17.92-9.33,17.92-7.46Z" fill="#263238"/><path d="M1309,3869.34c-1.59,0-3.64-8.5,1.12-17.74s13.07-12.78,13.72-11.29-4.48,6.35-8.31,14c-3.82,7.65-4.85,14.93-6.53,15.03Z" fill="#263238"/><path d="M1251.32,3765.36c-.75,1.5-8.59-1.21-18.66-.93-10.08.28-17.55,3.08-18.67,1.59-1.12-1.5,6.72-7.37,18.67-7.56c11.94-.19,19.78,5.6,18.66,6.9Z" fill="#263238"/><g opacity="0.3"><path d="M1258.13,3662.7l-2.42,32.48-174.06-8.4l1.21-37.52l175.27,13.44Z"/></g><path d="M1253.66,3728.5c-5.87,1.42-12.01,1.16-17.74-.75-6.47-1.34-12.74-3.51-18.66-6.44-3.46-1.7-6.8-3.63-9.99-5.78-1.95-1.2-3.71-2.68-5.23-4.39-1.03-1.34-1.58-2.98-1.58-4.67c0-1.68.55-3.33,1.58-4.66.91-1.18,2.09-2.13,3.43-2.76c1.35-.64,2.83-.94,4.32-.88c2.25.09,4.47.46,6.63,1.12c3.73,1.09,7.36,2.52,10.82,4.29c5.9,2.88,11.29,6.69,15.96,11.29c7.94,7.94,10.46,14.56,9.9,14.84s-4.58-5.04-12.7-11.66c-4.76-3.73-9.97-6.87-15.49-9.34-3.29-1.36-6.66-2.55-10.08-3.54-3.73-1.12-6.91-1.22-7.93,0-1.03,1.21,0,.93,0,2.05c1.12,1.23,2.4,2.3,3.82,3.17c3,2.09,6.11,3.99,9.34,5.7c5.38,2.96,11.04,5.4,16.89,7.28c5.68,1.31,11.27,3.02,16.71,5.13Z" fill="#263238"/><path d="M1251.32,3730.93c-3.1-5.24-4.5-11.3-4.01-17.36.04-6.57,1.11-13.09,3.17-19.32c1.34-3.66,3-7.18,4.95-10.55c1.05-2.31,2.67-4.31,4.71-5.81c2.04-1.51,4.44-2.46,6.95-2.78c1.6.11,3.13.66,4.42,1.6c1.29.95,2.28,2.24,2.86,3.72.82,2.1,1.32,4.3,1.5,6.54.61,3.96.61,7.99,0,11.94-1.25,6.6-4.1,12.79-8.31,18.02-7.28,9.33-14.56,10.73-14.74,10.17-.19-.56,5.59-4.01,11.29-12.69c3.26-4.95,5.4-10.56,6.25-16.43.47-3.41.47-6.86,0-10.27-.47-3.73-1.77-6.9-3.17-6.53s-4.86,2.61-6.44,5.6c-1.82,2.99-3.42,6.11-4.76,9.33-2.16,5.64-3.54,11.54-4.11,17.55-1.21,10.45.37,17.27-.56,17.27Z" fill="#263238"/><path d="M894.052,1661.78c0,0-55.999,2.52-93.331,194.04-37.332,191.51-321.898,1743.32-321.898,1743.32l206.354,1.87L1073.99,2125.64l-25.85,1521.29l209.62,16.05c0,0,157.26-1682.66,158.66-1780.56c1.87-122.08-68.22-245.56-68.22-245.56l-454.148,24.92Z" fill="#263238"/><path d="M1177.68,1645.45c1.31,0-20.16,109.66-47.87,244.34-27.72,134.68-51.24,243.69-52.55,243.41s20.07-109.67,47.79-244.34c27.71-134.68,51.61-243.69,52.63-243.41Z" fill="#455a64"/><path d="M1209.79,1672.8c0-.56,5.6-2.24,12.04,3.45c1.83,1.66,3.28,3.69,4.24,5.96.97,2.28,1.43,4.73,1.36,7.2-.23,3.12-1.35,6.11-3.22,8.62-1.86,2.51-4.41,4.44-7.33,5.57-2.85,1.29-6,1.76-9.1,1.34-3.11-.41-6.03-1.68-8.44-3.68-1.81-1.69-3.23-3.75-4.18-6.03-.95-2.29-1.4-4.75-1.33-7.22c0-8.59,5.79-11.57,5.88-11.01-1.57,3.42-2.4,7.14-2.43,10.92.13,1.89.63,3.74,1.48,5.44s2.03,3.21,3.47,4.45c1.84,1.27,3.97,2.05,6.2,2.28c2.22.24,4.47-.1,6.53-.96s3.88-2.23,5.27-3.98c1.4-1.75,2.33-3.82,2.72-6.02.14-1.89-.11-3.79-.72-5.59-.6-1.79-1.57-3.45-2.83-4.86-4.57-5.32-9.7-5.14-9.61-5.88Z" fill="#455a64"/><path d="M1200.92,1748.58c0-.56,5.79,0,9.34,7.75.9,2.21,1.31,4.59,1.19,6.98-.11,2.38-.74,4.71-1.85,6.83-1.6,2.52-3.86,4.55-6.53,5.88-2.68,1.32-5.66,1.9-8.63,1.66-2.98-.24-5.83-1.29-8.26-3.03-2.42-1.74-4.33-4.1-5.51-6.84-.75-2.25-.99-4.64-.72-6.99.28-2.36,1.06-4.62,2.31-6.64c4.38-7,10.36-6.81,10.17-6.25s-4.48,1.86-7.19,7.84c-1.37,3.35-1.37,7.1,0,10.45.98,1.85,2.41,3.43,4.15,4.58c1.75,1.15,3.76,1.85,5.84,2.01c2.09.17,4.19-.19,6.09-1.05c1.91-.86,3.57-2.19,4.83-3.86c1.76-3.19,2.19-6.94,1.21-10.45-2.7-6.35-6.9-8.22-6.44-8.87Z" fill="#455a64"/><path d="M1003.16,1674.66c-.39,3.21-1.2,6.35-2.43,9.34-2.917,8.54-6.571,16.82-10.921,24.73-14.24,26.4-34.807,48.86-59.859,65.36-25.051,16.5-53.805,26.53-83.684,29.18-8.974.78-17.999.78-26.972,0-3.162-.1-6.298-.6-9.334-1.49c0-.93,14.093.65,36.399-2.15c29.072-3.53,56.929-13.75,81.383-29.86c24.453-16.11,44.836-37.68,59.547-63c10.92-18.85,15.031-32.39,15.871-32.11Z" fill="#455a64"/><path d="M1404.66,1810.83c0,0-2.42-1.12-6.25-3.73-5.35-3.85-10.34-8.16-14.93-12.88-15.35-15.54-27.33-34.08-35.18-54.46s-11.42-42.16-10.46-63.98c.21-6.56,1.06-13.1,2.52-19.5c1.03-4.58,1.68-7,2.05-6.91.38.09-1.12,10.17-1.12,26.51.02,42.87,15.95,84.21,44.71,116.01c10.92,12.04,19.13,18.2,18.66,18.94Z" fill="#455a64"/><path d="M2058.91,1761.65c-1.02,1.4,15.22,13.25,36.21,26.6c21,13.34,38.64,22.96,39.48,21.56s-15.4-13.35-36.3-26.6c-20.91-13.26-38.45-23.34-39.39-21.56Z" fill="#eb996e"/><path d="M2070.67,1738.78c-.93,1.4,15.68,15.03,37.33,30.52c21.66,15.49,39.58,26.97,40.51,25.67.93-1.31-15.59-15.03-37.33-30.52-21.75-15.5-39.48-26.98-40.51-25.67Z" fill="#eb996e"/><g id="ejcHsCV8MDp118" transform="translate(.000004 0)"><path d="M812.014,1292.75l91.651,5.04c6.491,25.59,15.172,50.57,25.945,74.67c73.83-128.05,130.66-299.69,145.22-368.66-2.05-6.781-4.57-14.434-7.56-22.958-2.23-12.886-1.85-26.09,1.12-38.826c2.52-15.306,6.82-36.025,8.03-45.545c4.01-29.119,8.68-33.786,18.67-30.426c13.81,4.48-5.7,81.851,5.6,83.531c6.16.84,13.53-25.666,15.77-47.412s11.95-88.571,19.13-93.331c10.55-6.533,19.69,3.827,17.08,25.48-2.61,21.652-6.07,87.264,5.41,88.104s20.82-110.037,20.82-110.037-1.78-24.08,11.48-23.52c23.98,1.027,5.32,117.971,3.26,129.077-1.49,7.653,11.02,9.333,12.14.746c1.12-8.586,6.9-110.97,31.26-110.13c18.67.654-14.46,96.318-3.92,118.53c10.55,22.213,17.83-75.318,35.75-74.011c6.62.56,11.57,1.867-.66,57.025-11.93,43.861-26.23,87.043-42.83,129.353-28,153.07-152.97,642.68-348.221,553.08-109.197-50.12-160.249-298.66-160.249-298.66l95.104-1.12Z" fill="#ffbe9d"/><path d="M1225.56,1040.29c.16-1.15.48-2.28.94-3.36.84-2.42,1.86-5.6,3.26-9.33c3.08-8.87,7.28-21.19,12.79-37.332c5.51-16.146,12.13-35.745,18.66-58.891c3.36-11.48,6.16-23.986,8.68-37.333c1.31-6.72,2.52-13.626,3.36-20.719.24-3.512.24-7.035,0-10.546c0-3.64-.84-6.627-3.73-6.72-2.89-.094-4.95,1.68-7,4.76-1.86,3.295-3.39,6.765-4.57,10.359-2.62,7.373-4.67,15.213-6.72,23.146s-3.92,16.24-6.35,24.64c-1.06,4.601-2.95,8.967-5.6,12.879-.66.766-1.54,1.319-2.52,1.587-.61.135-1.25.13-1.87-.015-.61-.146-1.18-.428-1.67-.825-1.08-.984-1.96-2.154-2.62-3.453-.98-2.292-1.64-4.711-1.96-7.187-.42-18.825,1.46-37.631,5.6-55.998c1.59-9.333,3.27-18.666,4.48-27.999.56-4.76,1.12-9.333,1.22-14.373.09-5.04-.66-10.36-2.62-11.2s-6.72,1.773-9.33,5.693c-2.58,4.14-4.62,8.595-6.07,13.253-3.18,9.749-5.58,19.736-7.18,29.866-1.78,10.266-3.18,20.719-4.39,31.359-.47,5.32-1.03,10.64-1.49,16.053l-.75,8.12c.1,1.734-.18,3.469-.83,5.082-.64,1.612-1.64,3.064-2.9,4.251-1.6,1.168-3.53,1.797-5.51,1.797s-3.91-.629-5.51-1.797c-.9-.598-1.67-1.382-2.25-2.299s-.96-1.947-1.11-3.021c-.14-.991-.14-1.996,0-2.987v-1.96l2.52-16.333c1.59-11.013,2.9-22.026,3.92-33.225c1.03-11.2,1.87-22.493,2.06-33.786.54-11.181-.59-22.381-3.36-33.226-.65-2.752-2.32-5.155-4.67-6.72-1.13-.361-2.34-.357-3.46.011-1.12.369-2.1,1.084-2.79,2.043-3.03,5.525-4.26,11.849-3.55,18.106-2.05,21.933-4.39,43.492-7.56,64.678-1.59,10.546-3.36,21.093-5.97,31.453-.75,2.519-1.5,5.133-2.43,7.746-.89,3.167-2.75,5.975-5.32,8.026-1.14.559-2.43.715-3.67.444-1.23-.271-2.34-.954-3.14-1.937-1.14-1.197-2-2.631-2.52-4.2-1.01-2.589-1.73-5.28-2.15-8.026-2.19-20.31-2.37-40.785-.56-61.132c1.38-9.485,1.91-19.073,1.59-28.652-.3-4.089-2.18-7.902-5.23-10.64-.72-.446-1.51-.741-2.35-.87-.83-.128-1.68-.086-2.5.123-.87.295-1.72.67-2.52,1.12-.84.747-.75,0-1.31,1.587-3.37,8.393-5.85,17.122-7.37,26.039-1.87,9.333-3.45,17.826-4.85,26.599s-2.71,17.36-3.83,25.946c-1.12,8.587-1.68,16.987-3.36,25.386-1.45,8.207-3.64,16.266-6.53,24.08-.77,1.988-1.68,3.922-2.71,5.786-1.31,1.774-2.05,4.013-5.6,5.133-.91.167-1.84.061-2.69-.305-.85-.365-1.57-.973-2.07-1.748-.65-1.077-1.16-2.239-1.49-3.453-.42-2.029-.67-4.09-.75-6.16c0-15.96,2.15-30.519,2.99-44.612.6-6.737.6-13.516,0-20.253c0-2.986-1.4-6.533-3.08-7.186-1.18-.577-2.47-.877-3.78-.877s-2.61.3-3.78.877c-3.92,4.207-6.35,9.585-6.91,15.306-1.4,5.693-1.96,11.48-2.99,16.986-3.92,22.026-8.02,41.066-9.98,56.559-.92,6.813-.92,13.719,0,20.532c1.3,5.6,3.26,10.64,4.29,14.56s2.05,6.72,2.71,9.335c.34,1,.59,2.03.74,3.08-.56-.91-1-1.88-1.3-2.9l-3.18-9.328c-1.3-4.014-3.26-8.493-4.85-14.653-1-6.996-1-14.098,0-21.093c1.77-15.773,5.51-34.626,9.33-56.745c1.03-5.507,1.59-11.293,2.8-17.266.67-3.155,1.51-6.271,2.52-9.333.94-3.395,2.97-6.383,5.79-8.494c1.7-.898,3.59-1.368,5.51-1.368s3.81.47,5.5,1.368c1.83,1.151,3.33,2.75,4.36,4.646s1.55,4.024,1.52,6.181c.66,7.016.66,14.077,0,21.093-.65,14.186-2.89,29.026-2.52,44.145.07,1.789.29,3.568.66,5.32c0,1.773,1.3,2.52,1.12,2.146-.19-.373,1.77-1.493,2.52-2.986.92-1.656,1.73-3.371,2.42-5.133c2.77-7.566,4.8-15.379,6.07-23.333c1.59-8.12,2.15-16.52,3.27-25.199c1.12-8.68,2.24-17.266,3.64-26.133c1.4-8.866,2.98-17.733,4.76-26.786c1.51-9.455,4.14-18.696,7.84-27.532.74-1.482,1.87-2.739,3.26-3.64c1.24-.68,2.56-1.213,3.92-1.587c1.57-.447,3.21-.554,4.82-.312c1.61.241,3.15.825,4.51,1.712c2.17,1.72,3.96,3.867,5.26,6.307c1.3,2.441,2.08,5.123,2.3,7.879.7,5.078.7,10.229,0,15.307-.46,4.76-.93,9.333-1.21,14.559-1.82,19.879-1.63,39.891.56,59.732.4,2.356,1.03,4.669,1.87,6.906.28.903.76,1.732,1.4,2.427c0,0,0,0,.46,0c0,2.147,0,0,0,.84s0,0,0-.747c1.17-1.559,2.08-3.291,2.71-5.133.87-2.302,1.62-4.729,2.24-7.28c2.52-9.893,4.2-20.346,5.79-30.799c3.17-20.999,5.5-42.559,7.46-64.398v.467c-.83-7.693.84-15.449,4.76-22.12c1.5-1.906,3.55-3.299,5.88-3.985c2.32-.686,4.8-.63,7.1.159c1.95,1.086,3.67,2.554,5.05,4.318s2.39,3.786,2.97,5.948c2.99,11.476,4.22,23.34,3.64,35.186c0,11.573-1.02,22.959-2.05,34.252s-2.43,22.399-4.01,33.412c-.84,5.6-1.68,11.013-2.52,16.52-.75,3.453-.56,3.547,0,4.573.64.438,1.41.671,2.19.671s1.55-.233,2.19-.671c1.12-.84,1.31-2.426,1.59-5.506l.65-8.12l1.68-16.146c1.12-10.64,2.62-21.28,4.39-31.639c1.73-10.406,4.22-20.669,7.47-30.706c1.69-5.073,3.98-9.929,6.81-14.466c1.54-2.446,3.57-4.544,5.97-6.16c1.33-.963,2.87-1.593,4.5-1.836c1.62-.244,3.28-.094,4.84.436c1.43.882,2.63,2.082,3.52,3.506.89,1.425,1.44,3.035,1.61,4.707.38,2.626.54,5.28.47,7.933c0,5.133-.66,10.08-1.22,15.026-1.3,9.333-3.08,19.226-4.76,28.653-4.01,17.729-5.95,35.862-5.78,54.038.26,1.952.76,3.864,1.49,5.693.34.663.74,1.289,1.21,1.867c0,0,0,0,0-.653c2.1-3.374,3.64-7.06,4.58-10.92c2.42-8.12,4.38-16.333,6.53-24.359c1.92-7.987,4.26-15.868,7-23.613c1.29-3.836,2.98-7.527,5.04-11.013c1.11-1.9,2.57-3.577,4.29-4.947.94-.813,2.06-1.39,3.27-1.68c1.2-.188,2.43-.188,3.64,0c1.27.128,2.49.593,3.52,1.347c1.04.755,1.85,1.772,2.36,2.947.78,1.961,1.19,4.049,1.21,6.16.07,3.775-.15,7.551-.65,11.293-.84,7.279-2.24,14.186-3.55,20.999-2.71,13.346-5.69,26.039-9.33,37.332-7,23.146-14,42.746-19.69,58.705-5.7,15.962-10.55,28.002-13.82,36.582-1.58,3.92-2.89,7-3.82,9.34-.42,1.52-1.02,3-1.78,4.38Z" fill="#eb996e"/></g><path d="M716.07,1303.3c17.733,62.62,52.452,159.22,89.691,261.33c1.173,3.29,3.297,6.15,6.102,8.23s6.165,3.29,9.653,3.46c3.489.17,6.949-.7,9.943-2.5s5.386-4.45,6.874-7.61l91.278-193.1c0,0-22.026-158.66-20.16-152.97c1.867,5.69-188.341,20.53-188.341,20.53l-5.04,62.63Z" fill="#af1ee0"/><path d="M921.771,1272.22c0,.75-11.387,4.11-29.399,11.01-23.542,8.94-46.221,20-67.759,33.04-21.509,13.11-41.81,28.1-60.665,44.8-14.466,12.79-22.772,21.56-23.332,21s1.586-2.61,5.133-6.81c5-5.84,10.295-11.41,15.866-16.71c18.397-17.71,38.677-33.36,60.479-46.66c21.807-13.14,44.961-23.91,69.064-32.11c7.286-2.51,14.701-4.63,22.213-6.35c2.717-.85,5.553-1.26,8.4-1.21Z" fill="#fafafa"/><path d="M957.983,1320.38c-5.93-5.98-11.074-12.69-15.306-19.97-10.899-17-20.269-34.92-27.999-53.58-7.735-18.7-13.764-38.07-18.013-57.86-2.175-8.1-3.273-16.44-3.267-24.83c2.784,7.83,4.999,15.85,6.627,23.99c5,19.33,11.235,38.31,18.666,56.84c7.764,18.43,16.679,36.35,26.693,53.66c4.66,6.97,8.869,14.24,12.599,21.75Z" fill="#263238"/><path d="M1018.83,465.283c-15.83,26.097-25.645,55.396-28.729,85.765s.643,61.043,10.909,89.79c9.33,25.666,24.26,50.959,21.56,78.211-2.71,27.253-23.988,54.225-16.52,81.105c4.48,15.959,18.1,27.999,23.42,43.492c6.07,18.666,0,38.359-3.26,57.491-7.47,48.906,8.21,98.091,12.04,147.373c3.82,49.28-9.34,107.05-53.388,128.51-13.346,6.54-30.799,8.4-41.905-1.58-14.186-12.6-10.267-35.38-6.347-54.04c38.639-186.664-80.731-368.845-53.478-557.747c4.386-30.239,21.279-81.571,43.025-102.663c21.746-21.093,82.133-18.666,102.663,3.733" fill="#263238"/><path d="M834.973,1006.79c0,0,5.693-6.72,14.093-19.975c11.788-18.717,20.044-39.437,24.359-61.132c2.816-14.944,3.788-30.177,2.894-45.358-1.633-17.652-2.287-35.381-1.96-53.105.556-9.707,2.344-19.304,5.32-28.56c3.41-9.535,7.723-18.723,12.879-27.439c10.453-17.639,23.613-34.066,35.746-51.612c12.459-16.583,21.125-35.699,25.386-55.998c2.069-19.121.965-38.451-3.267-57.212-3.531-17.436-4.91-35.24-4.106-53.012c1.11-15.524,4.248-30.836,9.333-45.545c7.129-21.345,18.352-41.095,33.039-58.145c3.901-4.636,8.144-8.972,12.691-12.973c1.44-1.537,3.07-2.886,4.86-4.014c0,0-6.258,6.067-16.151,18.667-23.563,29.248-37.341,65.16-39.386,102.663-.625,17.482.911,34.974,4.573,52.079c4.452,19.265,5.651,39.138,3.547,58.798-4.424,20.866-13.342,40.517-26.133,57.585-12.226,17.827-25.386,34.159-35.652,51.332-5.05,8.393-9.24,17.273-12.506,26.506-2.953,8.878-4.741,18.102-5.32,27.44-.413,17.529.085,35.067,1.493,52.545.741,15.487-.45,31.006-3.546,46.198-4.677,21.991-13.55,42.874-26.133,61.505-3.407,5.037-7.148,9.839-11.2,14.372-1.452,1.64-3.079,3.11-4.853,4.39Z" fill="#455a64"/><path d="M746.496,1020.69c.751-2.17,1.721-4.27,2.893-6.25c2.333-4.39,5.32-10.17,9.333-17.452c7.84-15.213,19.506-37.332,30.986-65.331c14.042-32.702,21.83-67.746,22.959-103.318.005-10.248-.775-20.482-2.333-30.612-1.587-10.453-4.013-20.999-5.6-32.013-1.941-11.391-1.687-23.049.747-34.345c3.156-11.598,9.646-22.015,18.666-29.959c17.546-15.96,38.732-26.413,49.745-45.173c9.542-18.601,15.164-38.963,16.52-59.825c1.975-19.124,6.301-37.932,12.879-55.998c14.794-38.784,41.153-72.082,75.505-95.384c5.476-3.686,11.181-7.022,17.079-9.986c1.992-1.193,4.123-2.134,6.345-2.8c0,0-8.398,4.48-22.304,14.373-19.6,13.986-36.569,31.334-50.119,51.238-9.397,13.644-17.047,28.412-22.773,43.959-6.289,18.108-10.363,36.911-12.133,55.998-2.799,19.88-5.039,42.093-16.986,61.785-11.946,19.693-33.785,30.893-50.492,46.666-8.514,7.388-14.651,17.13-17.639,27.999-2.269,10.688-2.491,21.709-.653,32.479c1.493,10.733,3.826,21.373,5.413,31.919c1.614,10.373,2.364,20.862,2.24,31.359-1.268,36.223-9.474,71.867-24.173,104.997-9.547,22.39-20.392,44.205-32.479,65.334L750.229,1015c-1.04,2.03-2.291,3.93-3.733,5.69Z" fill="#455a64"/></g><g><g id="ejcHsCV8MDp128" transform="translate(.000002 0)"><path d="M3834.44,3657.94c.43-1.36.99-2.67,1.68-3.92c1.3-2.8,3.08-6.53,5.22-11.29c6.5-14.58,11.71-29.69,15.59-45.17c10.27-40.14,13.91-101.45-1.31-174.25-8.26-39.7-19.08-78.83-32.38-117.13-13.63-41.53-29.59-85.59-42.56-133.28-14.65-49.74-21.73-101.4-21-153.25c1.96-54.22,18.01-108.26,35.65-162.21c17.64-53.94,35.84-106.49,41.25-159.69c6.02-51.01-4.24-102.62-29.3-147.46-23.33-43.02-52.73-79.89-74.67-117.97-20.53-35.38-35.66-73.63-44.89-113.49-13.24-57.7-14.23-117.54-2.89-175.65c4.13-21.26,10.38-42.05,18.66-62.06-.25,1.4-.62,2.77-1.12,4.1l-3.73,11.86c-3.17,10.45-7.37,26.13-11.39,46.66-10.43,57.85-8.87,117.22,4.58,174.44c9.36,39.37,24.55,77.12,45.08,112c21.93,37.33,51.42,74.66,75.31,117.87c25.68,45.75,36.23,98.44,30.15,150.54-5.51,53.95-23.8,107.05-41.44,160.91-17.64,53.85-33.5,107.33-35.46,160.62-.84,51.33,6.08,102.49,20.53,151.75c12.78,47.42,28.46,91.47,42,133.19c13.18,38.51,23.78,77.86,31.73,117.78c14.84,73.36,10.64,135.33,0,175.56-4.16,15.51-9.76,30.6-16.71,45.07l-5.78,11.11c-.81,1.22-1.74,2.35-2.8,3.36Z" fill="#263238"/><path d="M3762.48,2469.93c0,0-44.61-142.89,35.47-226.51.62-.67,1.41-1.16,2.29-1.41.89-.24,1.82-.24,2.7.01s1.67.74,2.29,1.42c.62.67,1.04,1.51,1.21,2.41c4.29,23.61,9.61,95.47-43.96,224.08Z" fill="#af1ee0"/><path d="M3789.27,2291.02c-.15,8.85-1.15,17.66-2.99,26.32-2.99,18.2-6.44,39.48-10.17,63-3.74,23.52-7.19,44.89-10.08,62.99-.82,8.83-2.38,17.57-4.67,26.14-.88-8.83-.69-17.73.56-26.51c1.49-16.33,4.39-38.73,8.4-63.37s8.4-46.67,11.85-62.81c1.36-8.83,3.74-17.48,7.1-25.76Z" fill="#263238"/><path d="M3817.42,2806.72c0,0,27.34-147.18,137.28-183.58.87-.31,1.8-.36,2.7-.16.9.19,1.72.64,2.38,1.28s1.13,1.45,1.35,2.34c.23.89.2,1.82-.08,2.7-7.28,22.68-36.12,88.66-143.63,177.42Z" fill="#af1ee0"/><path d="M3924.74,2660.94c-4.26,7.77-9.26,15.11-14.93,21.93l-38.54,50.86-38.27,51.06c-4.82,7.4-10.28,14.37-16.33,20.81c3.41-8.21,7.79-15.99,13.06-23.15c9.34-13.72,22.03-32.2,37.34-52.08c15.3-19.88,29.21-37.33,39.76-50.02c5.24-7.11,11.25-13.62,17.91-19.41Z" fill="#263238"/><path d="M3787.74,3175.65c0,0-16.62-148.76,78.02-215.5.73-.57,1.61-.92,2.53-1c.92-.09,1.85.08,2.67.51.83.42,1.51,1.07,1.98,1.87s.7,1.71.66,2.64c-.28,23.98-8.77,95.47-85.86,211.48Z" fill="#af1ee0"/><path d="M3848.4,3005.14c-1.74,8.69-4.39,17.17-7.93,25.29l-22.03,59.92c-8.21,22.4-15.59,42.65-21.84,59.92-2.39,8.5-5.51,16.77-9.33,24.73.86-8.85,2.8-17.57,5.79-25.95c4.57-15.68,11.66-37.33,20.34-60.66s17.17-44.33,23.61-59.36c2.98-8.33,6.79-16.34,11.39-23.89Z" fill="#263238"/><path d="M3698.27,2344.4c0,0-132.35-69.43-135.24-185.07-.01-.91.23-1.8.69-2.58.46-.79,1.12-1.43,1.91-1.87s1.69-.66,2.59-.63c.91.03,1.79.3,2.56.79c19.69,13.62,74.38,60.66,127.49,189.36Z" fill="#af1ee0"/><path d="M3590.56,2199.09c6.22,6.35,11.75,13.32,16.52,20.81c10.83,14.84,23.43,32.39,37.34,51.71l37.33,51.51c5.69,6.78,10.75,14.06,15.12,21.75-6.83-5.68-12.94-12.17-18.2-19.32-10.55-12.51-24.36-30.42-38.92-50.68-14.56-20.25-27.35-39.01-36.12-52.73-5.14-7.21-9.52-14.93-13.07-23.05Z" fill="#263238"/><path d="M3843.27,2650.95c0,0-136.64-61.13-146.25-176.58-.08-.91.1-1.82.5-2.63.41-.82,1.03-1.51,1.8-1.99.78-.48,1.67-.74,2.58-.75s1.8.23,2.58.7c20.44,12.41,77.84,55.91,138.79,181.25Z" fill="#af1ee0"/><path d="M3727.07,2512.45c6.58,5.92,12.53,12.52,17.73,19.69l40.51,49.37l40.6,49.19c6.08,6.43,11.58,13.4,16.42,20.81-7.16-5.29-13.67-11.39-19.41-18.2-11.2-11.95-26.13-28.93-41.9-48.25-15.78-19.32-29.59-37.33-39.3-50.49-5.68-6.81-10.6-14.23-14.65-22.12Z" fill="#263238"/><path d="M3764.4,2993.38c0,0-93.33-116.66-49.74-223.99.34-.85.91-1.58,1.65-2.12.73-.54,1.6-.86,2.51-.94.9-.08,1.81.1,2.63.51.81.4-5.14,2.55-5.14,2.55s51.17,84.46,48.09,223.99Z" fill="#af1ee0"/><path d="M3724.08,2816.8c3.2,8.29,5.51,16.89,6.91,25.66c3.92,17.92,8.49,39.02,13.53,62.35s9.8,44.33,13.72,62.25c2.5,8.51,4.22,17.22,5.14,26.04-4.1-7.94-7.23-16.33-9.34-25.01-4.57-15.78-10.17-37.34-15.4-62.16-5.22-24.83-9.33-46.67-11.94-62.72-1.84-8.68-2.71-17.54-2.62-26.41Z" fill="#263238"/><path d="M3857.73,3395.73c0,0-135.61-63.37-143.26-178.92-.09-.92.08-1.85.49-2.67.41-.83,1.05-1.53,1.84-2.02.78-.48,1.69-.74,2.62-.73.92,0,1.83.26,2.61.76c20.07,12.78,76.72,57.3,135.7,183.58Z" fill="#af1ee0"/><path d="M3743.59,3255.27c6.41,6.12,12.23,12.83,17.36,20.06l39.67,49.93l39.75,49.94c5.98,6.53,11.35,13.59,16.06,21.09-6.95-5.45-13.22-11.72-18.67-18.67-11.11-12.13-25.67-29.4-41.16-49s-28.93-37.8-38.45-51.14c-5.7-6.81-10.59-14.27-14.56-22.21Z" fill="#263238"/><g opacity="0.3"><path d="M3866.54,3480.99c0,0,46.02-142.43-33.32-226.8-.61-.67-1.4-1.16-2.27-1.41-.88-.25-1.81-.26-2.69-.02-.87.24-1.67.72-2.29,1.39-.63.66-1.05,1.48-1.24,2.38-4.48,23.52-10.54,95.38,41.81,224.46Z"/></g><path d="M3866.54,3480.99c0,0,46.02-142.43-33.32-226.8-.61-.67-1.4-1.16-2.27-1.41-.88-.25-1.81-.26-2.69-.02-.87.24-1.67.72-2.29,1.39-.63.66-1.05,1.48-1.24,2.38-4.48,23.52-10.54,95.38,41.81,224.46Z" fill="#af1ee0"/><path d="M3841.44,3301.6c3.23,8.3,5.49,16.95,6.72,25.76c3.36,15.96,7.37,38.27,11.2,62.91c3.82,24.64,6.44,47.13,7.84,63.46c1.21,8.82,1.37,17.75.46,26.6-2.21-8.57-3.71-17.31-4.48-26.13-2.7-18.2-5.88-39.48-9.33-63.09s-6.81-44.89-9.33-63.09c-1.89-8.68-2.93-17.53-3.08-26.42Z" fill="#263238"/></g><g id="ejcHsCV8MDp148" transform="translate(0 0.000003)"><path d="M3868.04,3547.16c0,0-11.2-149.33,85.67-212.61.76-.52,1.65-.82,2.57-.87.92-.04,1.83.17,2.64.62.8.44,1.47,1.11,1.92,1.91.44.8.66,1.71.62,2.63-1.12,23.99-12.13,95.2-93.42,208.32Z" fill="#af1ee0"/><path d="M3934.49,3378.98c-2.09,8.62-5.06,17-8.87,25.01-6.91,16.98-15.12,37.33-24.17,59.08-9.05,21.74-16.99,42-23.89,59.07-2.77,8.43-6.3,16.58-10.55,24.36c1.24-8.82,3.52-17.47,6.81-25.75c5.14-15.5,12.98-36.78,22.5-59.83s18.66-43.77,25.66-58.52c3.32-8.23,7.52-16.08,12.51-23.42Z" fill="#263238"/><g opacity="0.3"><path d="M4044.34,3147.89c0,0,57.4-138.13-14.75-228.76-.56-.72-1.31-1.28-2.17-1.6-.85-.33-1.79-.41-2.69-.23-.9.17-1.73.59-2.41,1.21-.67.63-1.16,1.42-1.41,2.31-6.44,23.14-18.29,94.17,23.43,227.07Z"/></g><g opacity="0.3"><path d="M4117.51,2979.05c0,0,122.54-85.86,110.22-201.03-.09-.91-.43-1.77-.99-2.49-.55-.72-1.29-1.28-2.14-1.61s-1.78-.41-2.67-.25c-.9.16-1.73.57-2.41,1.18-17.83,16.05-65.61,69.43-102.01,204.2Z"/></g><g opacity="0.3"><path d="M3916.01,3339.78c0,0,147.83-23.06,187.41-131.88.32-.85.4-1.77.23-2.66s-.58-1.72-1.18-2.4c-.61-.67-1.39-1.17-2.26-1.43s-1.8-.27-2.67-.04c-23.06,6.9-89.88,33.5-181.53,138.41Z"/></g><path d="M4117.51,2979.05c0,0,122.54-85.86,110.22-201.03-.09-.91-.43-1.77-.99-2.49-.55-.72-1.29-1.28-2.14-1.61s-1.78-.41-2.67-.25c-.9.16-1.73.57-2.41,1.18-17.83,16.05-65.61,69.43-102.01,204.2Z" fill="#af1ee0"/><path d="M4205.52,2821.04c-2.43,8.55-5.85,16.79-10.17,24.55-7,14.75-17.18,34.91-29.03,56.93-11.85,22.03-23.24,41.53-32.01,55.35-4.32,7.75-9.55,14.96-15.59,21.46c3.28-8.21,7.34-16.08,12.14-23.52c8.77-16.14,19.13-34.99,30.51-55.99l30.43-56c3.82-8.02,8.42-15.65,13.72-22.78Z" fill="#263238"/><path d="M3916.01,3339.78c0,0,147.83-23.06,187.41-131.88.32-.85.4-1.77.23-2.66s-.58-1.72-1.18-2.4c-.61-.67-1.39-1.17-2.26-1.43s-1.8-.27-2.67-.04c-23.06,6.9-89.88,33.5-181.53,138.41Z" fill="#af1ee0"/><path d="M4044.34,3147.89c0,0,57.4-138.13-14.75-228.76-.56-.72-1.31-1.28-2.17-1.6-.85-.33-1.79-.41-2.69-.23-.9.17-1.73.59-2.41,1.21-.67.63-1.16,1.42-1.41,2.31-6.44,23.14-18.29,94.17,23.43,227.07Z" fill="#af1ee0"/><path d="M4033.89,2967.39c2.47,8.51,4,17.28,4.57,26.13c2.05,16.24,4.29,38.73,6.07,63.65c1.77,24.92,2.61,47.51,2.61,63.93.56,8.87.03,17.77-1.59,26.51-1.61-8.71-2.39-17.56-2.33-26.41-1.21-18.67-2.71-39.86-4.29-63.66-1.59-23.79-3.08-45.35-4.39-63.65-1.09-8.79-1.31-17.67-.65-26.5Z" fill="#263238"/><path d="M4125.07,2807.6c0,0,0,1.13,0,3.27c0,2.15,0,5.69,0,9.33c0,9.34-.93,21.19-1.59,36.31-1.68,31.92-4.2,76.44-7.09,129.64-9.33,54.13-37.33,114.14-74.66,172.47-27.16,42.93-56,81.95-80.27,118.25-22.15,31.86-42.04,65.23-59.54,99.87-11.59,23.4-20.96,47.83-28,72.98-2.34,8.87-4.2,15.87-5.23,20.63-.44,2.48-1.1,4.91-1.96,7.28.03-2.52.35-5.02.93-7.47.66-4.85,2.06-11.95,4.2-21c6.28-25.58,15.2-50.45,26.6-74.2c17.35-34.9,37.22-68.5,59.45-100.51c24.46-36.59,52.74-75.7,79.8-118.35c36.87-58.05,64.31-117.13,74.67-170.42c3.73-53.11,6.81-97.53,9.33-129.45c1.21-15.12,2.24-27.16,2.99-36.21c0-3.74.65-6.91.93-9.34-.32-.99-.51-2.03-.56-3.08Z" fill="#263238"/><path d="M4064.59,3236.74c-5.99,6.54-12.69,12.39-19.97,17.45-12.79,10.27-30.8,23.89-51.05,38.45-20.26,14.56-39.2,26.98-53.2,35.56-7.3,5.09-15.2,9.26-23.52,12.42c6.62-5.91,13.78-11.19,21.37-15.78l52.08-36.77l51.99-37.33c6.91-5.45,14.39-10.14,22.3-14Z" fill="#263238"/></g><path d="M3774.89,3611.93l-43.12,290.26h268.8l-34.82-290.26h-190.86Z" fill="#455a64"/><path d="M3976.58,3701.81c0,1.58-48.53,2.8-108.36,2.8-59.82,0-108.45-1.22-108.45-2.8c36.08-2.77,72.28-3.7,108.45-2.8c36.15-.9,72.31.03,108.36,2.8Z" fill="#263238"/><path d="M3981.81,3724.95c0,1.59-50.12,2.8-112,2.8s-112-1.21-112-2.8c0-1.58,50.12-2.8,112-2.8s112,1.22,112,2.8Z" fill="#263238"/></g><g><path id="ejcHsCV8MDp168" d="M2936.6,796.047c0,0-2.52,0-7.38,0-7.08-.421-14.19-.421-21.28,0-27.41,1.605-54.34,7.919-79.61,18.666-40.05,16.789-74.91,43.947-100.98,78.678-16.08,21.686-28.04,46.14-35.28,72.145-16.34,61.944-7.51,127.834,24.54,183.304c8.74,15.35,19.41,29.53,31.74,42.18c12.44,13.41,26.93,24.75,42.93,33.6c16.42,9.24,35.01,13.92,53.85,13.53c19.42-.23,38.05-7.76,52.17-21.09c6.83-7.15,12.19-15.58,15.76-24.81c3.57-9.22,5.29-19.06,5.06-28.95-.15-20.54-6.67-40.53-18.67-57.21-24.17-34.06-63.37-56.93-105.09-69.25-43.26-12.15-88.94-12.79-132.53-1.87-22.25,5.79-43.69,14.32-63.84,25.39-20.34,11.48-38.81,25.99-54.78,43.03-3.83,4.38-8.22,8.4-11.67,13.25l-10.55,14.18c-6.41,10-12.15,20.42-17.17,31.18-9.98,21.85-16.8,45.01-20.25,68.78-6.78,47.5-.32,95.94,18.66,140c18.15,43.05,49.75,79.07,90.07,102.66c19.55,11.17,41.37,17.78,63.84,19.32c22.02,1.23,43.93-4.02,62.99-15.12c18.93-10.46,33.89-26.86,42.56-46.66c8.19-19.52,8.75-41.4,1.59-61.32-7.38-19.22-19.44-36.29-35.09-49.65-15.19-13.13-32.69-23.29-51.61-29.96-36.91-11.64-76.4-12.32-113.68-1.96-34.89,9.45-66.93,27.3-93.33,51.98-24.05,23.04-42.37,51.39-53.48,82.79-19.44,54.47-18.55,114.13,2.52,167.99c16.43,40.21,42.87,75.55,76.81,102.67c21.38,17.14,45.19,31.01,70.65,41.15c8.78,3.27,15.59,5.7,20.26,7l6.9,2.24c0,0-2.43-.46-7.09-1.77-6.9-1.84-13.69-4.06-20.35-6.63-25.79-9.69-49.92-23.36-71.49-40.5-34.51-27.09-61.48-62.61-78.3-103.13-21.44-54.37-22.54-114.66-3.08-169.77c11.13-31.87,29.65-60.65,54.04-84c26.77-25.18,59.29-43.44,94.73-53.2c38.06-10.62,78.39-9.97,116.1,1.87c19.48,6.79,37.5,17.21,53.1,30.71c16.27,13.8,28.79,31.49,36.4,51.42c7.68,20.81,7.35,43.73-.93,64.31-9.21,20.58-24.82,37.64-44.52,48.62-19.77,11.53-42.47,17.04-65.33,15.87-23.01-1.61-45.36-8.44-65.33-19.98-41.25-23.92-73.63-60.56-92.31-104.43-19.22-46.156968-26.04-94.21-19.22-142.61c3.56-24.26,10.54-47.89,20.72-70.19c5.12-10.99,10.99-21.62,17.54-31.82l10.83-14.47c3.45-4.94,7.93-9.33,11.85-13.62c16.35-17.37,35.23-32.16,56-43.87c20.62-11.28,42.57-19.94,65.33-25.76c44.42-11.13,90.98-10.45,135.05,1.96c42.56,12.69,82.41,35.93,107.52,71.21c12.62,17.37,19.47,38.26,19.6,59.73.45,21.13-7.5,41.58-22.12,56.84-14.93,14.02-34.59,21.91-55.07,22.12-19.59.45-38.94-4.42-55.99-14.09-16.39-9.04-31.2-20.67-43.87-34.44-12.49-12.94-23.31-27.39-32.2-43.03-32.63-56.49-41.49-123.63-24.64-186.658c7.47-26.305,19.72-51.013,36.12-72.891c26.56-34.995,62.01-62.229,102.67-78.864c25.47-10.54,52.62-16.481,80.17-17.547c7.14-.471,14.31-.471,21.46,0l5.98.747Z" opacity="0" fill="#263238"/><path d="M3248.23,1729.91h-1308.59v1009.28h1308.59v-1009.28Z" fill="#af1ee0"/><path d="M1939.64,1729.91l241.72,225.49h1286.38l-219.51-225.49h-1308.59Z" fill="#af1ee0"/><path d="M1939.64,1729.91l1308.96-2.33h1.03l.74.65l217.28,223.16l2.24,2.33l4.01,4.11h-5.79l-1286.37-1.03h-.56l-241.54-226.89l242.66,224h-1.03l1286.38-.93-1.68,4.1-2.34-2.33-217.18-223.16l1.68.75-1308.49-2.43Z" fill="#263238"/><path d="M2332.75,2195.35c-7.09.26-13.8,3.29-18.68,8.44-4.87,5.15-7.53,12.01-7.41,19.1.13,7.1,3.04,13.85,8.1,18.82s11.87,7.76,18.97,7.76c7.09,0,13.9-2.79,18.96-7.76s7.97-11.72,8.1-18.82c.12-7.09-2.54-13.95-7.41-19.1-4.88-5.15-11.59-8.18-18.67-8.44" fill="#263238"/><path d="M2641.95,2195.35c-7.06.27-13.73,3.3-18.58,8.44-4.85,5.13-7.5,11.97-7.36,19.03.13,7.06,3.03,13.79,8.08,18.74c5.04,4.95,11.82,7.72,18.89,7.72c7.06,0,13.84-2.77,18.89-7.72c5.04-4.95,7.94-11.68,8.07-18.74.14-7.06-2.5-13.9-7.35-19.03-4.85-5.14-11.53-8.17-18.59-8.44" fill="#263238"/><g id="ejcHsCV8MDp174"><path d="M2643.72,2436.9c-5.39-20.62-14.16-40.21-25.94-57.96-13.11-18.99-29.94-35.13-49.47-47.42-23.56-15.63-51.04-24.33-79.31-25.11-28.26-.77-56.18,6.41-80.56,20.73-20.14,11.24-37.82,26.41-51.99,44.61-12.76,17.1-22.57,36.22-29.03,56.56.08-1.52.33-3.02.75-4.48.9-4.21,2.05-8.35,3.45-12.41c5.12-15,12.59-29.08,22.12-41.72c14.07-19.05,31.97-34.95,52.55-46.67c25.01-14.93,53.76-22.44,82.87-21.64c29.12.79,57.42,9.85,81.58,26.12c19.87,12.77,36.84,29.56,49.84,49.28c8.86,13.16,15.57,27.66,19.88,42.93c1.14,4.15,2.05,8.35,2.7,12.6.32,1.51.51,3.04.56,4.58Z" fill="#263238"/></g><path d="M1942.62,1741.02l231.46,293.43h1074.15v-79.05h-1066.87l-238.74-214.38Z" opacity="0.5"/><path d="M2990.17,2736.95c-1.31,0-2.43-175.55-2.43-391.99c0-216.43,1.12-391.98,2.43-391.98c1.3,0,2.52,175.46,2.52,391.98c0,216.53-1.12,391.99-2.52,391.99Z" fill="#263238"/><path d="M3195.68,2508.11h-115.36v130.38h115.36v-130.38Z" fill="#f5f5f5"/><path d="M1939.64,1729.91L1671.03,1955.4h268.61v-225.49Z" fill="#af1ee0"/><g opacity="0.4"><path d="M1939.64,1729.91L1671.03,1955.4h268.61v-225.49Z"/></g><path d="M3286.87,2739.19h-1504.59v1160.48h1504.59v-1160.48Z" fill="#af1ee0"/><path d="M3286.87,2739.19h-1504.59v1160.48h1504.59v-1160.48Z" opacity="0.3"/><path d="M2909.9,3891.45c-1.3,0-2.42-258.61-2.42-577.62c0-319,1.12-577.72,2.42-577.72c1.31,0,2.43,258.62,2.43,577.72s-1.12,577.62-2.43,577.62Z" fill="#263238"/><path d="M3159.28,3635.54h-115.35v130.39h115.35v-130.39Z" fill="#f5f5f5"/><path d="M2412.17,2742.27h-170.89v247.61h170.89v-247.61Z" fill="#263238"/><path d="M2412.17,3648.61h-170.89v247.6h170.89v-247.6Z" fill="#263238"/><path d="M3273.8,2739.19h-3.92-11.29l-43.4.47-159.88.75-527.22,1.21-527.42-.65-159.78-.75-43.4-.47l43.4-.46l159.78-.75l527.42-.75l527.22.75l159.88.75l43.4.46h11.29l3.92-.56Z" fill="#263238"/></g></g>
<script><![CDATA[
!function(t,n){"object"==typeof exports&&"undefined"!=typeof module?module.exports=n():"function"==typeof __SVGATOR_DEFINE__&&__SVGATOR_DEFINE__.amd?__SVGATOR_DEFINE__(n):((t="undefined"!=typeof globalThis?globalThis:t||self).__SVGATOR_PLAYER__=t.__SVGATOR_PLAYER__||{},t.__SVGATOR_PLAYER__["5c7f360c"]=n())}(this,(function(){"use strict";function t(t,n){var e=Object.keys(t);if(Object.getOwnPropertySymbols){var r=Object.getOwnPropertySymbols(t);n&&(r=r.filter((function(n){return Object.getOwnPropertyDescriptor(t,n).enumerable}))),e.push.apply(e,r)}return e}function n(n){for(var e=1;e<arguments.length;e++){var r=null!=arguments[e]?arguments[e]:{};e%2?t(Object(r),!0).forEach((function(t){u(n,t,r[t])})):Object.getOwnPropertyDescriptors?Object.defineProperties(n,Object.getOwnPropertyDescriptors(r)):t(Object(r)).forEach((function(t){Object.defineProperty(n,t,Object.getOwnPropertyDescriptor(r,t))}))}return n}function e(t){return(e="function"==typeof Symbol&&"symbol"==typeof Symbol.iterator?function(t){return typeof t}:function(t){return t&&"function"==typeof Symbol&&t.constructor===Symbol&&t!==Symbol.prototype?"symbol":typeof t})(t)}function r(t,n){if(!(t instanceof n))throw new TypeError("Cannot call a class as a function")}function i(t,n){for(var e=0;e<n.length;e++){var r=n[e];r.enumerable=r.enumerable||!1,r.configurable=!0,"value"in r&&(r.writable=!0),Object.defineProperty(t,r.key,r)}}function o(t,n,e){return n&&i(t.prototype,n),e&&i(t,e),t}function u(t,n,e){return n in t?Object.defineProperty(t,n,{value:e,enumerable:!0,configurable:!0,writable:!0}):t[n]=e,t}function a(t){return(a=Object.setPrototypeOf?Object.getPrototypeOf:function(t){return t.__proto__||Object.getPrototypeOf(t)})(t)}function l(t,n){return(l=Object.setPrototypeOf||function(t,n){return t.__proto__=n,t})(t,n)}function s(){if("undefined"==typeof Reflect||!Reflect.construct)return!1;if(Reflect.construct.sham)return!1;if("function"==typeof Proxy)return!0;try{return Boolean.prototype.valueOf.call(Reflect.construct(Boolean,[],(function(){}))),!0}catch(t){return!1}}function f(t,n,e){return(f=s()?Reflect.construct:function(t,n,e){var r=[null];r.push.apply(r,n);var i=new(Function.bind.apply(t,r));return e&&l(i,e.prototype),i}).apply(null,arguments)}function c(t,n){if(n&&("object"==typeof n||"function"==typeof n))return n;if(void 0!==n)throw new TypeError("Derived constructors may only return object or undefined");return function(t){if(void 0===t)throw new ReferenceError("this hasn't been initialised - super() hasn't been called");return t}(t)}function h(t,n,e){return(h="undefined"!=typeof Reflect&&Reflect.get?Reflect.get:function(t,n,e){var r=function(t,n){for(;!Object.prototype.hasOwnProperty.call(t,n)&&null!==(t=a(t)););return t}(t,n);if(r){var i=Object.getOwnPropertyDescriptor(r,n);return i.get?i.get.call(e):i.value}})(t,n,e||t)}function v(t){return function(t){if(Array.isArray(t))return y(t)}(t)||function(t){if("undefined"!=typeof Symbol&&null!=t[Symbol.iterator]||null!=t["@@iterator"])return Array.from(t)}(t)||function(t,n){if(!t)return;if("string"==typeof t)return y(t,n);var e=Object.prototype.toString.call(t).slice(8,-1);"Object"===e&&t.constructor&&(e=t.constructor.name);if("Map"===e||"Set"===e)return Array.from(t);if("Arguments"===e||/^(?:Ui|I)nt(?:8|16|32)(?:Clamped)?Array$/.test(e))return y(t,n)}(t)||function(){throw new TypeError("Invalid attempt to spread non-iterable instance.\nIn order to be iterable, non-array objects must have a [Symbol.iterator]() method.")}()}function y(t,n){(null==n||n>t.length)&&(n=t.length);for(var e=0,r=new Array(n);e<n;e++)r[e]=t[e];return r}function g(t,n,e){if(Number.isInteger(t))return t;var r=Math.pow(10,n);return Math[e]((+t+Number.EPSILON)*r)/r}Number.isInteger||(Number.isInteger=function(t){return"number"==typeof t&&isFinite(t)&&Math.floor(t)===t}),Number.EPSILON||(Number.EPSILON=2220446049250313e-31);var d=p(Math.pow(10,-6));function p(t){var n=arguments.length>1&&void 0!==arguments[1]?arguments[1]:6;return g(t,n,"round")}function m(t,n){var e=arguments.length>2&&void 0!==arguments[2]?arguments[2]:d;return Math.abs(t-n)<e}p(Math.pow(10,-2)),p(Math.pow(10,-4));var b=Math.PI/180;function w(t){return t}function A(t,n,e){var r=1-e;return 3*e*r*(t*r+n*e)+e*e*e}function _(){var t=arguments.length>0&&void 0!==arguments[0]?arguments[0]:0,n=arguments.length>1&&void 0!==arguments[1]?arguments[1]:0,e=arguments.length>2&&void 0!==arguments[2]?arguments[2]:1,r=arguments.length>3&&void 0!==arguments[3]?arguments[3]:1;return t<0||t>1||e<0||e>1?null:m(t,n)&&m(e,r)?w:function(i){if(i<=0)return t>0?i*n/t:0===n&&e>0?i*r/e:0;if(i>=1)return e<1?1+(i-1)*(r-1)/(e-1):1===e&&t<1?1+(i-1)*(n-1)/(t-1):1;for(var o,u=0,a=1;u<a;){var l=A(t,e,o=(u+a)/2);if(m(i,l))break;l<i?u=o:a=o}return A(n,r,o)}}function x(){return 1}function k(t){return 1===t?1:0}function S(){var t=arguments.length>0&&void 0!==arguments[0]?arguments[0]:1,n=arguments.length>1&&void 0!==arguments[1]?arguments[1]:0;if(1===t){if(0===n)return k;if(1===n)return x}var e=1/t;return function(t){return t>=1?1:(t+=n*e)-t%e}}var O=Math.sin,j=Math.cos,M=Math.acos,E=Math.asin,P=Math.tan,I=Math.atan2,R=Math.PI/180,F=180/Math.PI,N=Math.sqrt,T=function(){function t(){var n=arguments.length>0&&void 0!==arguments[0]?arguments[0]:1,e=arguments.length>1&&void 0!==arguments[1]?arguments[1]:0,i=arguments.length>2&&void 0!==arguments[2]?arguments[2]:0,o=arguments.length>3&&void 0!==arguments[3]?arguments[3]:1,u=arguments.length>4&&void 0!==arguments[4]?arguments[4]:0,a=arguments.length>5&&void 0!==arguments[5]?arguments[5]:0;r(this,t),this.m=[n,e,i,o,u,a],this.i=null,this.w=null,this.s=null}return o(t,[{key:"determinant",get:function(){var t=this.m;return t[0]*t[3]-t[1]*t[2]}},{key:"isIdentity",get:function(){if(null===this.i){var t=this.m;this.i=1===t[0]&&0===t[1]&&0===t[2]&&1===t[3]&&0===t[4]&&0===t[5]}return this.i}},{key:"point",value:function(t,n){var e=this.m;return{x:e[0]*t+e[2]*n+e[4],y:e[1]*t+e[3]*n+e[5]}}},{key:"translateSelf",value:function(){var t=arguments.length>0&&void 0!==arguments[0]?arguments[0]:0,n=arguments.length>1&&void 0!==arguments[1]?arguments[1]:0;if(!t&&!n)return this;var e=this.m;return e[4]+=e[0]*t+e[2]*n,e[5]+=e[1]*t+e[3]*n,this.w=this.s=this.i=null,this}},{key:"rotateSelf",value:function(){var t=arguments.length>0&&void 0!==arguments[0]?arguments[0]:0;if(t%=360){var n=O(t*=R),e=j(t),r=this.m,i=r[0],o=r[1];r[0]=i*e+r[2]*n,r[1]=o*e+r[3]*n,r[2]=r[2]*e-i*n,r[3]=r[3]*e-o*n,this.w=this.s=this.i=null}return this}},{key:"scaleSelf",value:function(){var t=arguments.length>0&&void 0!==arguments[0]?arguments[0]:1,n=arguments.length>1&&void 0!==arguments[1]?arguments[1]:1;if(1!==t||1!==n){var e=this.m;e[0]*=t,e[1]*=t,e[2]*=n,e[3]*=n,this.w=this.s=this.i=null}return this}},{key:"skewSelf",value:function(t,n){if(n%=360,(t%=360)||n){var e=this.m,r=e[0],i=e[1],o=e[2],u=e[3];t&&(t=P(t*R),e[2]+=r*t,e[3]+=i*t),n&&(n=P(n*R),e[0]+=o*n,e[1]+=u*n),this.w=this.s=this.i=null}return this}},{key:"resetSelf",value:function(){var t=arguments.length>0&&void 0!==arguments[0]?arguments[0]:1,n=arguments.length>1&&void 0!==arguments[1]?arguments[1]:0,e=arguments.length>2&&void 0!==arguments[2]?arguments[2]:0,r=arguments.length>3&&void 0!==arguments[3]?arguments[3]:1,i=arguments.length>4&&void 0!==arguments[4]?arguments[4]:0,o=arguments.length>5&&void 0!==arguments[5]?arguments[5]:0,u=this.m;return u[0]=t,u[1]=n,u[2]=e,u[3]=r,u[4]=i,u[5]=o,this.w=this.s=this.i=null,this}},{key:"recomposeSelf",value:function(){var t=arguments.length>0&&void 0!==arguments[0]?arguments[0]:null,n=arguments.length>1&&void 0!==arguments[1]?arguments[1]:null,e=arguments.length>2&&void 0!==arguments[2]?arguments[2]:null,r=arguments.length>3&&void 0!==arguments[3]?arguments[3]:null,i=arguments.length>4&&void 0!==arguments[4]?arguments[4]:null;return this.isIdentity||this.resetSelf(),t&&(t.x||t.y)&&this.translateSelf(t.x,t.y),n&&this.rotateSelf(n),e&&(e.x&&this.skewSelf(e.x,0),e.y&&this.skewSelf(0,e.y)),!r||1===r.x&&1===r.y||this.scaleSelf(r.x,r.y),i&&(i.x||i.y)&&this.translateSelf(i.x,i.y),this}},{key:"decompose",value:function(){var t=arguments.length>0&&void 0!==arguments[0]?arguments[0]:0,n=arguments.length>1&&void 0!==arguments[1]?arguments[1]:0,e=this.m,r=e[0]*e[0]+e[1]*e[1],i=[[e[0],e[1]],[e[2],e[3]]],o=N(r);if(0===o)return{origin:{x:p(e[4]),y:p(e[5])},translate:{x:p(t),y:p(n)},scale:{x:0,y:0},skew:{x:0,y:0},rotate:0};i[0][0]/=o,i[0][1]/=o;var u=e[0]*e[3]-e[1]*e[2]<0;u&&(o=-o);var a=i[0][0]*i[1][0]+i[0][1]*i[1][1];i[1][0]-=i[0][0]*a,i[1][1]-=i[0][1]*a;var l=N(i[1][0]*i[1][0]+i[1][1]*i[1][1]);if(0===l)return{origin:{x:p(e[4]),y:p(e[5])},translate:{x:p(t),y:p(n)},scale:{x:p(o),y:0},skew:{x:0,y:0},rotate:0};i[1][0]/=l,i[1][1]/=l,a/=l;var s=0;return i[1][1]<0?(s=M(i[1][1])*F,i[0][1]<0&&(s=360-s)):s=E(i[0][1])*F,u&&(s=-s),a=I(a,N(i[0][0]*i[0][0]+i[0][1]*i[0][1]))*F,u&&(a=-a),{origin:{x:p(e[4]),y:p(e[5])},translate:{x:p(t),y:p(n)},scale:{x:p(o),y:p(l)},skew:{x:p(a),y:0},rotate:p(s)}}},{key:"clone",value:function(){var t=this.m;return new this.constructor(t[0],t[1],t[2],t[3],t[4],t[5])}},{key:"toString",value:function(){var t=arguments.length>0&&void 0!==arguments[0]?arguments[0]:" ";if(null===this.s){var n=this.m.map((function(t){return p(t)}));1===n[0]&&0===n[1]&&0===n[2]&&1===n[3]?this.s="translate("+n[4]+t+n[5]+")":this.s="matrix("+n.join(t)+")"}return this.s}}],[{key:"create",value:function(t){return t?Array.isArray(t)?f(this,v(t)):t instanceof this?t.clone():(new this).recomposeSelf(t.origin,t.rotate,t.skew,t.scale,t.translate):new this}}]),t}();function q(t,n,e){return t>=.5?e:n}function B(t,n,e){return 0===t||n===e?n:t*(e-n)+n}function D(t,n,e){var r=B(t,n,e);return r<=0?0:r}function L(t,n,e){var r=B(t,n,e);return r<=0?0:r>=1?1:r}function C(t,n,e){return 0===t?n:1===t?e:{x:B(t,n.x,e.x),y:B(t,n.y,e.y)}}function V(t,n,e){var r=function(t,n,e){return Math.round(B(t,n,e))}(t,n,e);return r<=0?0:r>=255?255:r}function G(t,n,e){return 0===t?n:1===t?e:{r:V(t,n.r,e.r),g:V(t,n.g,e.g),b:V(t,n.b,e.b),a:B(t,null==n.a?1:n.a,null==e.a?1:e.a)}}function z(t,n){for(var e=[],r=0;r<t;r++)e.push(n);return e}function Y(t,n){if(--n<=0)return t;var e=(t=Object.assign([],t)).length;do{for(var r=0;r<e;r++)t.push(t[r])}while(--n>0);return t}var $,U=function(){function t(n){r(this,t),this.list=n,this.length=n.length}return o(t,[{key:"setAttribute",value:function(t,n){for(var e=this.list,r=0;r<this.length;r++)e[r].setAttribute(t,n)}},{key:"removeAttribute",value:function(t){for(var n=this.list,e=0;e<this.length;e++)n[e].removeAttribute(t)}},{key:"style",value:function(t,n){for(var e=this.list,r=0;r<this.length;r++)e[r].style[t]=n}}]),t}(),Q=/-./g,H=function(t,n){return n.toUpperCase()};function J(t){return"function"==typeof t?t:q}function Z(t){return t?"function"==typeof t?t:Array.isArray(t)?function(t){var n=arguments.length>1&&void 0!==arguments[1]?arguments[1]:w;if(!Array.isArray(t))return n;switch(t.length){case 1:return S(t[0])||n;case 2:return S(t[0],t[1])||n;case 4:return _(t[0],t[1],t[2],t[3])||n}return n}(t,null):function(t,n){var e=arguments.length>2&&void 0!==arguments[2]?arguments[2]:w;switch(t){case"linear":return w;case"steps":return S(n.steps||1,n.jump||0)||e;case"bezier":case"cubic-bezier":return _(n.x1||0,n.y1||0,n.x2||0,n.y2||0)||e}return e}(t.type,t.value,null):null}function K(t,n,e){var r=arguments.length>3&&void 0!==arguments[3]&&arguments[3],i=n.length-1;if(t<=n[0].t)return r?[0,0,n[0].v]:n[0].v;if(t>=n[i].t)return r?[i,1,n[i].v]:n[i].v;var o,u=n[0],a=null;for(o=1;o<=i;o++){if(!(t>n[o].t)){a=n[o];break}u=n[o]}return null==a?r?[i,1,n[i].v]:n[i].v:u.t===a.t?r?[o,1,a.v]:a.v:(t=(t-u.t)/(a.t-u.t),u.e&&(t=u.e(t)),r?[o,t,e(t,u.v,a.v)]:e(t,u.v,a.v))}function W(t,n){var e=arguments.length>2&&void 0!==arguments[2]?arguments[2]:null;return t&&t.length?"function"!=typeof n?null:("function"!=typeof e&&(e=null),function(r){var i=K(r,t,n);return null!=i&&e&&(i=e(i)),i}):null}function X(t,n){return t.t-n.t}function tt(t,n,r,i,o){var u,a="@"===r[0],l="#"===r[0],s=$[r],f=q;switch(a?(u=r.substr(1),r=u.replace(Q,H)):l&&(r=r.substr(1)),e(s)){case"function":if(f=s(i,o,K,Z,r,a,n,t),l)return f;break;case"string":f=W(i,J(s));break;case"object":if((f=W(i,J(s.i),s.f))&&"function"==typeof s.u)return s.u(n,f,r,a,t)}return f?function(t,n,e){if(arguments.length>3&&void 0!==arguments[3]&&arguments[3])return t instanceof U?function(r){return t.style(n,e(r))}:function(r){return t.style[n]=e(r)};if(Array.isArray(n)){var r=n.length;return function(i){var o=e(i);if(null==o)for(var u=0;u<r;u++)t[u].removeAttribute(n);else for(var a=0;a<r;a++)t[a].setAttribute(n,o)}}return function(r){var i=e(r);null==i?t.removeAttribute(n):t.setAttribute(n,i)}}(n,r,f,a):null}function nt(t,n,r,i){if(!i||"object"!==e(i))return null;var o=null,u=null;return Array.isArray(i)?u=function(t){if(!t||!t.length)return null;for(var n=0;n<t.length;n++)t[n].e&&(t[n].e=Z(t[n].e));return t.sort(X)}(i):(u=i.keys,o=i.data||null),u?tt(t,n,r,u,o):null}function et(t,n,e){if(!e)return null;var r=[];for(var i in e)if(e.hasOwnProperty(i)){var o=nt(t,n,i,e[i]);o&&r.push(o)}return r.length?r:null}function rt(t,n){if(!n.settings.duration||n.settings.duration<0)return null;var e,r,i,o,u,a=function(t,n){if(!n)return null;var e=[];if(Array.isArray(n))for(var r=n.length,i=0;i<r;i++){var o=n[i];if(2===o.length){var u=null;if("string"==typeof o[0])u=t.getElementById(o[0]);else if(Array.isArray(o[0])){u=[];for(var a=0;a<o[0].length;a++)if("string"==typeof o[0][a]){var l=t.getElementById(o[0][a]);l&&u.push(l)}u=u.length?1===u.length?u[0]:new U(u):null}if(u){var s=et(t,u,o[1]);s&&(e=e.concat(s))}}}else for(var f in n)if(n.hasOwnProperty(f)){var c=t.getElementById(f);if(c){var h=et(t,c,n[f]);h&&(e=e.concat(h))}}return e.length?e:null}(t,n.elements);return a?(e=a,r=n.settings,i=r.duration,o=e.length,u=null,function(t,n){var a=r.iterations||1/0,l=(r.alternate&&a%2==0)^r.direction>0?i:0,s=t%i,f=1+(t-s)/i;n*=r.direction,r.alternate&&f%2==0&&(n=-n);var c=!1;if(f>a)s=l,c=!0,-1===r.fill&&(s=r.direction>0?0:i);else if(n<0&&(s=i-s),s===u)return!1;u=s;for(var h=0;h<o;h++)e[h](s);return c}):null}function it(t,n){for(var e=n.querySelectorAll("svg"),r=0;r<e.length;r++)if(e[r].id===t.root&&!e[r].svgatorAnimation)return e[r].svgatorAnimation=!0,e[r];return null}function ot(t){var n=function(t){return t.shadowRoot};return document?Array.from(t.querySelectorAll(":not("+["a","area","audio","br","canvas","circle","datalist","embed","g","head","hr","iframe","img","input","link","object","path","polygon","rect","script","source","style","svg","title","track","video"].join()+")")).filter(n).map(n):[]}function ut(t){var n=arguments.length>1&&void 0!==arguments[1]?arguments[1]:document,e=arguments.length>2&&void 0!==arguments[2]?arguments[2]:0,r=it(t,n);if(r)return r;if(e>=20)return null;for(var i=ot(n),o=0;o<i.length;o++){var u=ut(t,i[o],e+1);if(u)return u}return null}function at(t,n){if($=n,!t||!t.root||!Array.isArray(t.animations))return null;var e=ut(t);if(!e)return null;var r=t.animations.map((function(t){return rt(e,t)})).filter((function(t){return!!t}));return r.length?{svg:e,animations:r,animationSettings:t.animationSettings,options:t.options||void 0}:null}function lt(t){var n=arguments.length>1&&void 0!==arguments[1]?arguments[1]:null,e=arguments.length>2&&void 0!==arguments[2]?arguments[2]:Number,r=arguments.length>3&&void 0!==arguments[3]?arguments[3]:"undefined"!=typeof BigInt&&BigInt,i="0x"+(t.replace(/[^0-9a-fA-F]+/g,"")||27);return n&&r&&e.isSafeInteger&&!e.isSafeInteger(+i)?e(r(i))%n+n:+i}function st(t,n,e){return!t||!e||n>t.length?t:t.substring(0,n)+st(t.substring(n+1),e,e)}function ft(t){var n=arguments.length>1&&void 0!==arguments[1]?arguments[1]:27;return!t||t%n?t%n:[0,1].includes(n)?n:ft(t/n,n)}function ct(t,n,e){if(t&&t.length){var r=lt(e),i=ft(r)+5,o=st(t,ft(r,5),i);return o=o.replace(/\x7c$/g,"==").replace(/\x2f$/g,"="),o=function(t,n,e){var r=+("0x"+t.substring(0,4));t=t.substring(4);for(var i=lt(n,r)%r+e%27,o=[],u=0;u<t.length;u+=2)if("|"!==t[u]){var a=+("0x"+t[u]+t[u+1])-i;o.push(a)}else{var l=+("0x"+t.substring(u+1,u+1+4))-i;u+=3,o.push(l)}return String.fromCharCode.apply(String,o)}(o=(o=atob(o)).replace(/[\x41-\x5A]/g,""),n,r),o=JSON.parse(o)}}var ht=[{key:"alternate",def:!1},{key:"fill",def:1},{key:"iterations",def:0},{key:"direction",def:1},{key:"speed",def:1},{key:"fps",def:100}],vt=function(){function t(n,e){var i=this,o=arguments.length>2&&void 0!==arguments[2]?arguments[2]:null;r(this,t),this._id=0,this._running=!1,this._rollingBack=!1,this._animations=n,this._settings=e,(!o||o<"2022-05-02")&&delete this._settings.speed,ht.forEach((function(t){i._settings[t.key]=i._settings[t.key]||t.def})),this.duration=e.duration,this.offset=e.offset||0,this.rollbackStartOffset=0}return o(t,[{key:"alternate",get:function(){return this._settings.alternate}},{key:"fill",get:function(){return this._settings.fill}},{key:"iterations",get:function(){return this._settings.iterations}},{key:"direction",get:function(){return this._settings.direction}},{key:"speed",get:function(){return this._settings.speed}},{key:"fps",get:function(){return this._settings.fps}},{key:"maxFiniteDuration",get:function(){return this.iterations>0?this.iterations*this.duration:this.duration}},{key:"_apply",value:function(t){for(var n=arguments.length>1&&void 0!==arguments[1]?arguments[1]:{},e=this._animations,r=e.length,i=0,o=0;o<r;o++)n[o]?i++:(n[o]=e[o](t,1),n[o]&&i++);return i}},{key:"_rollback",value:function(t){var n=this,e=1/0,r=null;this.rollbackStartOffset=t,this._rollingBack=!0,this._running=!0;this._id=window.requestAnimationFrame((function i(o){if(n._rollingBack){null==r&&(r=o);var u=Math.round(t-(o-r)*n.speed);if(u>n.duration&&e!==1/0){var a=!!n.alternate&&u/n.duration%2>1,l=u%n.duration;u=(l+=a?n.duration:0)||n.duration}var s=(n.fps?1e3/n.fps:0)*n.speed,f=Math.max(0,u);f<=e-s&&(n.offset=f,e=f,n._apply(f));var c=n.iterations>0&&-1===n.fill&&u>=n.maxFiniteDuration;(u<=0||n.offset<u||c)&&n.stop(),n._id=window.requestAnimationFrame(i)}}))}},{key:"_start",value:function(){var t=this,n=arguments.length>0&&void 0!==arguments[0]?arguments[0]:0,e=-1/0,r=null,i={};this._running=!0;var o=function o(u){null==r&&(r=u);var a=Math.round((u-r)*t.speed+n),l=(t.fps?1e3/t.fps:0)*t.speed;if(a>=e+l&&!t._rollingBack&&(t.offset=a,e=a,t._apply(a,i)===t._animations.length))return void t.pause(!0);t._id=window.requestAnimationFrame(o)};this._id=window.requestAnimationFrame(o)}},{key:"_pause",value:function(){this._id&&window.cancelAnimationFrame(this._id),this._running=!1}},{key:"play",value:function(){if(!this._running)return this._rollingBack?this._rollback(this.offset):this._start(this.offset)}},{key:"stop",value:function(){this._pause(),this.offset=0,this.rollbackStartOffset=0,this._rollingBack=!1,this._apply(0)}},{key:"reachedToEnd",value:function(){return this.iterations>0&&this.offset>=this.iterations*this.duration}},{key:"restart",value:function(){var t=arguments.length>0&&void 0!==arguments[0]&&arguments[0];this.stop(t),this.play(t)}},{key:"pause",value:function(){this._pause()}},{key:"reverse",value:function(){this.direction=-this.direction}}],[{key:"build",value:function(t,n){delete t.animationSettings,t.options=ct(t.options,t.root,"5c7f360c"),t.animations.map((function(n){n.settings=ct(n.s,t.root,"5c7f360c"),delete n.s,t.animationSettings||(t.animationSettings=n.settings)}));var e=t.version;if(!(t=at(t,n)))return null;var r=t.options||{},i=new this(t.animations,t.animationSettings,e);return{el:t.svg,options:r,player:i}}},{key:"push",value:function(t){return this.build(t)}},{key:"init",value:function(){var t=this,n=window.__SVGATOR_PLAYER__&&window.__SVGATOR_PLAYER__["5c7f360c"];Array.isArray(n)&&n.splice(0).forEach((function(n){return t.build(n)}))}}]),t}();function yt(t){return p(t)+""}function gt(t){var n=arguments.length>1&&void 0!==arguments[1]?arguments[1]:" ";return t&&t.length?t.map(yt).join(n):""}function dt(t){if(!t)return"transparent";if(null==t.a||t.a>=1){var n=function(t){return 1===(t=parseInt(t).toString(16)).length?"0"+t:t},e=function(t){return t.charAt(0)===t.charAt(1)},r=n(t.r),i=n(t.g),o=n(t.b);return e(r)&&e(i)&&e(o)&&(r=r.charAt(0),i=i.charAt(0),o=o.charAt(0)),"#"+r+i+o}return"rgba("+t.r+","+t.g+","+t.b+","+t.a+")"}function pt(t){return t?"url(#"+t+")":"none"}!function(){for(var t=0,n=["ms","moz","webkit","o"],e=0;e<n.length&&!window.requestAnimationFrame;++e)window.requestAnimationFrame=window[n[e]+"RequestAnimationFrame"],window.cancelAnimationFrame=window[n[e]+"CancelAnimationFrame"]||window[n[e]+"CancelRequestAnimationFrame"];window.requestAnimationFrame||(window.requestAnimationFrame=function(n){var e=Date.now(),r=Math.max(0,16-(e-t)),i=window.setTimeout((function(){n(e+r)}),r);return t=e+r,i},window.cancelAnimationFrame=window.clearTimeout)}();var mt={f:null,i:function(t,n,e){return 0===t?n:1===t?e:{x:D(t,n.x,e.x),y:D(t,n.y,e.y)}},u:function(t,n){return function(e){var r=n(e);t.setAttribute("rx",yt(r.x)),t.setAttribute("ry",yt(r.y))}}},bt={f:null,i:function(t,n,e){return 0===t?n:1===t?e:{width:D(t,n.width,e.width),height:D(t,n.height,e.height)}},u:function(t,n){return function(e){var r=n(e);t.setAttribute("width",yt(r.width)),t.setAttribute("height",yt(r.height))}}};Object.freeze({M:2,L:2,Z:0,H:1,V:1,C:6,Q:4,T:2,S:4,A:7});var wt={},At=null;function _t(t){var n=function(){if(At)return At;if("object"!==("undefined"==typeof document?"undefined":e(document))||!document.createElementNS)return{};var t=document.createElementNS("http://www.w3.org/2000/svg","svg");return t&&t.style?(t.style.position="absolute",t.style.opacity="0.01",t.style.zIndex="-9999",t.style.left="-9999px",t.style.width="1px",t.style.height="1px",At={svg:t}):{}}().svg;if(!n)return function(t){return null};var r=document.createElementNS(n.namespaceURI,"path");r.setAttributeNS(null,"d",t),r.setAttributeNS(null,"fill","none"),r.setAttributeNS(null,"stroke","none"),n.appendChild(r);var i=r.getTotalLength();return function(t){var n=r.getPointAtLength(i*t);return{x:n.x,y:n.y}}}function xt(t){return wt[t]?wt[t]:wt[t]=_t(t)}function kt(t,n,e,r){if(!t||!r)return!1;var i=["M",t.x,t.y];if(n&&e&&(i.push("C"),i.push(n.x),i.push(n.y),i.push(e.x),i.push(e.y)),n?!e:e){var o=n||e;i.push("Q"),i.push(o.x),i.push(o.y)}return n||e||i.push("L"),i.push(r.x),i.push(r.y),i.join(" ")}function St(t,n,e,r){var i=arguments.length>4&&void 0!==arguments[4]?arguments[4]:1,o=kt(t,n,e,r),u=xt(o);try{return u(i)}catch(t){return null}}function Ot(t,n,e){return t+(n-t)*e}function jt(t,n,e){var r=arguments.length>3&&void 0!==arguments[3]&&arguments[3],i={x:Ot(t.x,n.x,e),y:Ot(t.y,n.y,e)};return r&&(i.a=Mt(t,n)),i}function Mt(t,n){return Math.atan2(n.y-t.y,n.x-t.x)}function Et(t,n,e,r){var i=1-r;return i*i*t+2*i*r*n+r*r*e}function Pt(t,n,e,r){return 2*(1-r)*(n-t)+2*r*(e-n)}function It(t,n,e,r){var i=arguments.length>4&&void 0!==arguments[4]&&arguments[4],o=St(t,n,null,e,r);return o||(o={x:Et(t.x,n.x,e.x,r),y:Et(t.y,n.y,e.y,r)}),i&&(o.a=Rt(t,n,e,r)),o}function Rt(t,n,e,r){return Math.atan2(Pt(t.y,n.y,e.y,r),Pt(t.x,n.x,e.x,r))}function Ft(t,n,e,r,i){var o=i*i;return i*o*(r-t+3*(n-e))+3*o*(t+e-2*n)+3*i*(n-t)+t}function Nt(t,n,e,r,i){var o=1-i;return 3*(o*o*(n-t)+2*o*i*(e-n)+i*i*(r-e))}function Tt(t,n,e,r,i){var o=arguments.length>5&&void 0!==arguments[5]&&arguments[5],u=St(t,n,e,r,i);return u||(u={x:Ft(t.x,n.x,e.x,r.x,i),y:Ft(t.y,n.y,e.y,r.y,i)}),o&&(u.a=qt(t,n,e,r,i)),u}function qt(t,n,e,r,i){return Math.atan2(Nt(t.y,n.y,e.y,r.y,i),Nt(t.x,n.x,e.x,r.x,i))}function Bt(t,n,e){var r=arguments.length>3&&void 0!==arguments[3]&&arguments[3];if(Lt(n)){if(Ct(e))return It(n,e.start,e,t,r)}else if(Lt(e)){if(Vt(n))return It(n,n.end,e,t,r)}else{if(Vt(n))return Ct(e)?Tt(n,n.end,e.start,e,t,r):It(n,n.end,e,t,r);if(Ct(e))return It(n,e.start,e,t,r)}return jt(n,e,t,r)}function Dt(t,n,e){var r=Bt(t,n,e,!0);return r.a=function(t){return arguments.length>1&&void 0!==arguments[1]&&arguments[1]?t+Math.PI:t}(r.a)/b,r}function Lt(t){return!t.type||"corner"===t.type}function Ct(t){return null!=t.start&&!Lt(t)}function Vt(t){return null!=t.end&&!Lt(t)}var Gt=new T;var zt={f:yt,i:B},Yt={f:yt,i:L};function $t(t,n,e){return t.map((function(t){return function(t,n,e){var r=t.v;if(!r||"g"!==r.t||r.s||!r.v||!r.r)return t;var i=e.getElementById(r.r),o=i&&i.querySelectorAll("stop")||[];return r.s=r.v.map((function(t,n){var e=o[n]&&o[n].getAttribute("offset");return{c:t,o:e=p(parseInt(e)/100)}})),delete r.v,t}(t,0,e)}))}var Ut={gt:"gradientTransform",c:{x:"cx",y:"cy"},rd:"r",f:{x:"x1",y:"y1"},to:{x:"x2",y:"y2"}};function Qt(t,n,r,i,o,u,a,l){return $t(t,0,l),n=function(t,n,e){for(var r,i,o,u=t.length-1,a={},l=0;l<=u;l++)(r=t[l]).e&&(r.e=n(r.e)),r.v&&"g"===(i=r.v).t&&i.r&&(o=e.getElementById(i.r))&&(a[i.r]={e:o,s:o.querySelectorAll("stop")});return a}(t,i,l),function(i){var o=r(i,t,Ht);if(!o)return"none";if("c"===o.t)return dt(o.v);if("g"===o.t){if(!n[o.r])return pt(o.r);var u=n[o.r];return function(t,n){for(var e=t.s,r=e.length;r<n.length;r++){var i=e[e.length-1].cloneNode();i.id=Kt(i.id),t.e.appendChild(i),e=t.s=t.e.querySelectorAll("stop")}for(var o=0,u=e.length,a=n.length-1;o<u;o++)e[o].setAttribute("stop-color",dt(n[Math.min(o,a)].c)),e[o].setAttribute("offset",n[Math.min(o,a)].o)}(u,o.s),Object.keys(Ut).forEach((function(t){if(void 0!==o[t])if("object"!==e(Ut[t])){var n,r="gt"===t?(n=o[t],Array.isArray(n)?"matrix("+n.join(" ")+")":""):o[t],i=Ut[t];u.e.setAttribute(i,r)}else Object.keys(Ut[t]).forEach((function(n){if(void 0!==o[t][n]){var e=o[t][n],r=Ut[t][n];u.e.setAttribute(r,e)}}))})),pt(o.r)}return"none"}}function Ht(t,e,r){if(0===t)return e;if(1===t)return r;if(e&&r){var i=e.t;if(i===r.t)switch(e.t){case"c":return{t:i,v:G(t,e.v,r.v)};case"g":if(e.r===r.r){var o={t:i,s:Jt(t,e.s,r.s),r:e.r};return e.gt&&r.gt&&(o.gt=function(t,n,e){var r=n.length;if(r!==e.length)return q(t,n,e);for(var i=new Array(r),o=0;o<r;o++)i[o]=B(t,n[o],e[o]);return i}(t,e.gt,r.gt)),e.c?(o.c=C(t,e.c,r.c),o.rd=D(t,e.rd,r.rd)):e.f&&(o.f=C(t,e.f,r.f),o.to=C(t,e.to,r.to)),o}}if("c"===e.t&&"g"===r.t||"c"===r.t&&"g"===e.t){var u="c"===e.t?e:r,a="g"===e.t?n({},e):n({},r),l=a.s.map((function(t){return{c:u.v,o:t.o}}));return a.s="c"===e.t?Jt(t,l,a.s):Jt(t,a.s,l),a}}return q(t,e,r)}function Jt(t,n,e){if(n.length===e.length)return n.map((function(n,r){return Zt(t,n,e[r])}));for(var r=Math.max(n.length,e.length),i=[],o=0;o<r;o++){var u=Zt(t,n[Math.min(o,n.length-1)],e[Math.min(o,e.length-1)]);i.push(u)}return i}function Zt(t,n,e){return{o:L(t,n.o,e.o||0),c:G(t,n.c,e.c||{})}}function Kt(t){return t.replace(/-fill-([0-9]+)$/,(function(t,n){return"-fill-"+(+n+1)}))}var Wt={fill:Qt,"fill-opacity":Yt,stroke:Qt,"stroke-opacity":Yt,"stroke-width":zt,"stroke-dashoffset":{f:yt,i:B},"stroke-dasharray":{f:function(t){var n=arguments.length>1&&void 0!==arguments[1]?arguments[1]:" ";return t&&t.length>0&&(t=t.map((function(t){return p(t,4)}))),gt(t,n)},i:function(t,n,e){var r,i,o,u=n.length,a=e.length;if(u!==a)if(0===u)n=z(u=a,0);else if(0===a)a=u,e=z(u,0);else{var l=(o=(r=u)*(i=a)/function(t,n){for(var e;n;)e=n,n=t%n,t=e;return t||1}(r,i))<0?-o:o;n=Y(n,Math.floor(l/u)),e=Y(e,Math.floor(l/a)),u=a=l}for(var s=[],f=0;f<u;f++)s.push(p(D(t,n[f],e[f])));return s}},opacity:Yt,transform:function(t,n,r,i){if(!(t=function(t,n){if(!t||"object"!==e(t))return null;var r=!1;for(var i in t)t.hasOwnProperty(i)&&(t[i]&&t[i].length?(t[i].forEach((function(t){t.e&&(t.e=n(t.e))})),r=!0):delete t[i]);return r?t:null}(t,i)))return null;var o=function(e,i,o){var u=arguments.length>3&&void 0!==arguments[3]?arguments[3]:null;return t[e]?r(i,t[e],o):n&&n[e]?n[e]:u};return n&&n.a&&t.o?function(n){var e=r(n,t.o,Dt);return Gt.recomposeSelf(e,o("r",n,B,0)+e.a,o("k",n,C),o("s",n,C),o("t",n,C)).toString()}:function(t){return Gt.recomposeSelf(o("o",t,Bt,null),o("r",t,B,0),o("k",t,C),o("s",t,C),o("t",t,C)).toString()}},r:zt,"#size":bt,"#radius":mt,_:function(t,n){if(Array.isArray(t))for(var e=0;e<t.length;e++)this[t[e]]=n;else this[t]=n}},Xt=function(t){!function(t,n){if("function"!=typeof n&&null!==n)throw new TypeError("Super expression must either be null or a function");t.prototype=Object.create(n&&n.prototype,{constructor:{value:t,writable:!0,configurable:!0}}),n&&l(t,n)}(u,t);var n,e,i=(n=u,e=s(),function(){var t,r=a(n);if(e){var i=a(this).constructor;t=Reflect.construct(r,arguments,i)}else t=r.apply(this,arguments);return c(this,t)});function u(){return r(this,u),i.apply(this,arguments)}return o(u,null,[{key:"build",value:function(t){var n=h(a(u),"build",this).call(this,t,Wt);if(!n)return null;n.el,n.options,function(t,n,e){t.play()}(n.player)}}]),u}(vt);return Xt.init(),Xt}));
(function(s,i,o,w,d,a,b){w[o]=w[o]||{};w[o][s]=w[o][s]||[];w[o][s].push(i);})('5c7f360c',{"root":"ejcHsCV8MDp1","version":"2022-05-04","animations":[{"elements":{"ejcHsCV8MDp14":{"transform":{"data":{"o":{"x":429.963819,"y":3423.87,"type":"corner"},"t":{"x":-429.963813,"y":-3423.869993}},"keys":{"r":[{"t":0,"v":0,"e":[0.42,0,0.58,1]},{"t":1000,"v":-1.939596,"e":[0.42,0,0.58,1]},{"t":2000,"v":1.761582,"e":[0.42,0,0.58,1]},{"t":3000,"v":-0.114681}]}}},"ejcHsCV8MDp17":{"transform":{"data":{"o":{"x":435.398012,"y":3395.73,"type":"corner"},"t":{"x":-435.398012,"y":-3395.729997}},"keys":{"r":[{"t":0,"v":0,"e":[0.42,0,0.58,1]},{"t":1000,"v":1.098071,"e":[0.42,0,0.58,1]},{"t":2000,"v":-0.704593,"e":[0.42,0,0.58,1]},{"t":3000,"v":0.634464}]}}},"ejcHsCV8MDp20":{"transform":{"data":{"o":{"x":435.39801,"y":3147.79,"type":"corner"},"t":{"x":-435.398008,"y":-3147.789998}},"keys":{"r":[{"t":0,"v":0,"e":[0.42,0,0.58,1]},{"t":1000,"v":-1.608336,"e":[0.42,0,0.58,1]},{"t":2000,"v":0,"e":[0.42,0,0.58,1]},{"t":3000,"v":-1.608336}]}}},"ejcHsCV8MDp49":{"transform":{"data":{"t":{"x":-403.956474,"y":-457.982132}},"keys":{"o":[{"t":0,"v":{"x":1032.539463,"y":839.096889,"type":"corner"},"e":[0.42,0,0.58,1]},{"t":1000,"v":{"x":403.956474,"y":457.982132,"type":"corner"}}],"s":[{"t":0,"v":{"x":0.611364,"y":0.611364},"e":[0.42,0,0.58,1]},{"t":1500,"v":{"x":1,"y":1}}]}}},"ejcHsCV8MDp69":{"transform":{"data":{"o":{"x":1371.173811,"y":1281.52771,"type":"corner"},"t":{"x":-1371.173811,"y":-1281.52771}},"keys":{"r":[{"t":0,"v":0,"e":[0.455,0.03,0.515,0.955]},{"t":1000,"v":3.6951,"e":[0.455,0.03,0.515,0.955]},{"t":2000,"v":-5.819933,"e":[0.455,0.03,0.515,0.955]},{"t":3000,"v":1.435132}]}}},"ejcHsCV8MDp118":{"transform":{"data":{"o":{"x":874.358,"y":1398.24041,"type":"corner"},"t":{"x":-874.357996,"y":-1398.24041}},"keys":{"r":[{"t":300,"v":0,"e":[0.42,0,0.58,1]},{"t":1300,"v":4.962266,"e":[0.42,0,0.58,1]},{"t":2000,"v":2.035577,"e":[0.42,0,0.58,1]},{"t":2700,"v":3.218636},{"t":3000,"v":1.513907}]}}},"ejcHsCV8MDp128":{"transform":{"data":{"o":{"x":3851.089722,"y":3612.02,"type":"corner"},"t":{"x":-3851.08972,"y":-3612.02}},"keys":{"r":[{"t":0,"v":0,"e":[0.42,0,0.58,1]},{"t":1000,"v":-1.048533,"e":[0.42,0,0.58,1]},{"t":2000,"v":0.012151,"e":[0.42,0,0.58,1]},{"t":3000,"v":-0.250831}]}}},"ejcHsCV8MDp148":{"transform":{"data":{"o":{"x":3861.65273,"y":3594.43,"type":"corner"},"t":{"x":-3861.65273,"y":-3594.429997}},"keys":{"r":[{"t":0,"v":0,"e":[0.42,0,0.58,1]},{"t":1000,"v":-1.979611,"e":[0.42,0,0.58,1]},{"t":2000,"v":1.736579,"e":[0.42,0,0.58,1]},{"t":3000,"v":0.174938}]}}},"ejcHsCV8MDp168":{"opacity":[{"t":0,"v":0},{"t":1000,"v":1}]},"ejcHsCV8MDp174":{"transform":{"data":{"o":{"x":2485.57,"y":2436.9,"type":"corner"},"t":{"x":-2485.57,"y":-2436.9}},"keys":{"r":[{"t":0,"v":0,"e":[0.42,0,0.58,1]},{"t":1000,"v":-5.104511,"e":[0.42,0,0.58,1]},{"t":2000,"v":7.665593,"e":[0.42,0,0.58,1]},{"t":3000,"v":2.110995}]}}}},"s":"MXDA1ZDk5NDA4MjkzOTDA3ZjkyODc4ZDhjNDAE1ODUxNGU0ZTRlNGE0KMDgyODc5MDgzODFFOYTI4NzhkOGM0MDU4NGSY0YTQwODc5MkE4MzkTwN2Y5Mjg3OGQ4YzkxWNDA1ODRmNGE0MDg0OEDc4YThhNDA1ODRmNGUFTNDA3ZjhhOTI4MzkRwOGM3ZjkyODM0MDU4EVzg0N2ZGOGE5MTgzNJGFPNDA5MThlODM4MzJgyNDA1ODRmNGE0MDgM0OGU5MTQwNTg0ZjRlSNGU5Yg|"}],"options":"MRDAxMDg4MmY4MDgxNmSU3ZjgxMmY0N1kyZk4X3OTdjNmU3MTJmVDhhU"},'__SVGATOR_PLAYER__',window,document)
]]></script>
</svg>
